%TF.GenerationSoftware,KiCad,Pcbnew,4.0.7*%
%TF.CreationDate,2018-07-15T04:01:03+03:00*%
%TF.ProjectId,AmstradPS2Mouse,416D73747261645053324D6F7573652E,rev?*%
%TF.FileFunction,Copper,L2,Bot,Signal*%
%FSLAX46Y46*%
G04 Gerber Fmt 4.6, Leading zero omitted, Abs format (unit mm)*
G04 Created by KiCad (PCBNEW 4.0.7) date 07/15/18 04:01:03*
%MOMM*%
%LPD*%
G01*
G04 APERTURE LIST*
%ADD10C,0.100000*%
%ADD11C,0.150000*%
%ADD12R,3.500000X3.500000*%
%ADD13C,1.600000*%
%ADD14C,1.524000*%
%ADD15R,1.200000X2.800000*%
%ADD16R,2.800000X1.200000*%
%ADD17R,1.600000X1.600000*%
%ADD18C,4.000000*%
%ADD19C,1.000000*%
%ADD20R,1.000000X1.000000*%
%ADD21O,1.600000X1.600000*%
%ADD22C,1.700000*%
%ADD23R,1.800000X1.800000*%
%ADD24C,1.800000*%
%ADD25C,0.700000*%
%ADD26C,0.250000*%
%ADD27C,0.254000*%
G04 APERTURE END LIST*
D10*
D11*
X83540000Y-103809800D02*
X83540000Y-42697400D01*
X122605800Y-103809800D02*
X83540000Y-103809800D01*
X122605800Y-42672000D02*
X122605800Y-103809800D01*
X83540000Y-42697400D02*
X122605800Y-42672000D01*
D12*
X108325400Y-57708800D03*
X114325400Y-57708800D03*
X111325400Y-53008800D03*
D13*
X88290400Y-87677000D03*
X88290400Y-82677000D03*
D14*
X90753200Y-49326800D03*
X93353200Y-49326800D03*
X88653200Y-49326800D03*
X95453200Y-49326800D03*
X88653200Y-51826800D03*
X95453200Y-51826800D03*
D15*
X98803200Y-46326800D03*
X85303200Y-46326800D03*
D16*
X92053200Y-45526800D03*
D17*
X107289200Y-93372800D03*
D13*
X104519200Y-93372800D03*
X101749200Y-93372800D03*
X98979200Y-93372800D03*
X96209200Y-93372800D03*
X105904200Y-96212800D03*
X103134200Y-96212800D03*
X100364200Y-96212800D03*
X97594200Y-96212800D03*
D18*
X89249200Y-94792800D03*
X114249200Y-94792800D03*
D19*
X115112800Y-76606400D03*
X113842800Y-77876400D03*
D20*
X113842800Y-75336400D03*
D19*
X119888000Y-76606400D03*
X118618000Y-77876400D03*
D20*
X118618000Y-75336400D03*
D13*
X100863400Y-60502800D03*
D21*
X100863400Y-52882800D03*
D13*
X95808800Y-57607200D03*
D21*
X88188800Y-57607200D03*
D13*
X95808800Y-60883800D03*
D21*
X88188800Y-60883800D03*
D13*
X104140000Y-60502800D03*
D21*
X104140000Y-52882800D03*
D13*
X88849200Y-75946000D03*
D21*
X96469200Y-75946000D03*
D13*
X114249200Y-71907400D03*
D21*
X114249200Y-64287400D03*
D13*
X118033800Y-71907400D03*
D21*
X118033800Y-64287400D03*
D13*
X119380000Y-84429600D03*
D21*
X119380000Y-92049600D03*
D17*
X117652800Y-48031400D03*
D21*
X110032800Y-45491400D03*
X117652800Y-45491400D03*
X110032800Y-48031400D03*
D17*
X110540800Y-65151000D03*
D21*
X90220800Y-72771000D03*
X108000800Y-65151000D03*
X92760800Y-72771000D03*
X105460800Y-65151000D03*
X95300800Y-72771000D03*
X102920800Y-65151000D03*
X97840800Y-72771000D03*
X100380800Y-65151000D03*
X100380800Y-72771000D03*
X97840800Y-65151000D03*
X102920800Y-72771000D03*
X95300800Y-65151000D03*
X105460800Y-72771000D03*
X92760800Y-65151000D03*
X108000800Y-72771000D03*
X90220800Y-65151000D03*
X110540800Y-72771000D03*
D17*
X115417600Y-81229200D03*
D21*
X92557600Y-88849200D03*
X112877600Y-81229200D03*
X95097600Y-88849200D03*
X110337600Y-81229200D03*
X97637600Y-88849200D03*
X107797600Y-81229200D03*
X100177600Y-88849200D03*
X105257600Y-81229200D03*
X102717600Y-88849200D03*
X102717600Y-81229200D03*
X105257600Y-88849200D03*
X100177600Y-81229200D03*
X107797600Y-88849200D03*
X97637600Y-81229200D03*
X110337600Y-88849200D03*
X95097600Y-81229200D03*
X112877600Y-88849200D03*
X92557600Y-81229200D03*
X115417600Y-88849200D03*
D22*
X106070400Y-76936600D03*
X103570400Y-76936600D03*
X101070400Y-76936600D03*
D23*
X87249000Y-79146400D03*
D24*
X89789000Y-79146400D03*
D17*
X102681400Y-47167800D03*
D13*
X105181400Y-47167800D03*
D25*
X88290400Y-87677000D02*
X88290400Y-90601800D01*
X88290400Y-90601800D02*
X85623400Y-93268800D01*
X85623400Y-93268800D02*
X85623400Y-97891600D01*
X85623400Y-97891600D02*
X88569800Y-100838000D01*
X88569800Y-100838000D02*
X117246400Y-100838000D01*
X117246400Y-100838000D02*
X119380000Y-98704400D01*
X119380000Y-98704400D02*
X119380000Y-92049600D01*
X100863400Y-52882800D02*
X99732030Y-52882800D01*
X99732030Y-52882800D02*
X97268230Y-55346600D01*
X88988799Y-56807201D02*
X88188800Y-57607200D01*
X97268230Y-55346600D02*
X90449400Y-55346600D01*
X90449400Y-55346600D02*
X88988799Y-56807201D01*
X98729800Y-68986400D02*
X100380800Y-70637400D01*
X100380800Y-70637400D02*
X100380800Y-72771000D01*
X89636600Y-68986400D02*
X98729800Y-68986400D01*
X88188800Y-67538600D02*
X89636600Y-68986400D01*
X88188800Y-60883800D02*
X88188800Y-67538600D01*
D26*
X95808800Y-60883800D02*
X98425000Y-60883800D01*
X108000800Y-71577200D02*
X108000800Y-72771000D01*
X106832400Y-70408800D02*
X108000800Y-71577200D01*
X104851200Y-70408800D02*
X106832400Y-70408800D01*
X101650800Y-67208400D02*
X104851200Y-70408800D01*
X101650800Y-64109600D02*
X101650800Y-67208400D01*
X98425000Y-60883800D02*
X101650800Y-64109600D01*
X105257600Y-81229200D02*
X105257600Y-82360570D01*
X105257600Y-82360570D02*
X103842601Y-83775569D01*
X103842601Y-83775569D02*
X103842601Y-92384397D01*
X103842601Y-92384397D02*
X103134200Y-93092798D01*
X103134200Y-93092798D02*
X103134200Y-95081430D01*
X103134200Y-95081430D02*
X103134200Y-96212800D01*
X115417600Y-81229200D02*
X115417600Y-82279200D01*
X115417600Y-82279200D02*
X117568000Y-84429600D01*
X117568000Y-84429600D02*
X118248630Y-84429600D01*
X118248630Y-84429600D02*
X119380000Y-84429600D01*
X113842800Y-75336400D02*
X118618000Y-75336400D01*
X118033800Y-71907400D02*
X118033800Y-72948800D01*
X119888000Y-74803000D02*
X119888000Y-76606400D01*
X118033800Y-72948800D02*
X119888000Y-74803000D01*
D27*
G36*
X121895800Y-103099800D02*
X84250000Y-103099800D01*
X84250000Y-93268800D01*
X84638400Y-93268800D01*
X84638400Y-97891600D01*
X84713379Y-98268543D01*
X84926900Y-98588100D01*
X87873300Y-101534500D01*
X88192857Y-101748021D01*
X88569800Y-101823000D01*
X117246400Y-101823000D01*
X117623343Y-101748021D01*
X117942900Y-101534500D01*
X120076500Y-99400900D01*
X120290021Y-99081343D01*
X120365000Y-98704400D01*
X120365000Y-93112255D01*
X120394698Y-93092411D01*
X120705767Y-92626864D01*
X120815000Y-92077713D01*
X120815000Y-92021487D01*
X120705767Y-91472336D01*
X120394698Y-91006789D01*
X119929151Y-90695720D01*
X119380000Y-90586487D01*
X118830849Y-90695720D01*
X118365302Y-91006789D01*
X118054233Y-91472336D01*
X117945000Y-92021487D01*
X117945000Y-92077713D01*
X118054233Y-92626864D01*
X118365302Y-93092411D01*
X118395000Y-93112255D01*
X118395000Y-98296400D01*
X116838400Y-99853000D01*
X88977800Y-99853000D01*
X86608400Y-97483600D01*
X86608400Y-95314634D01*
X86613743Y-95314634D01*
X87014053Y-96283458D01*
X87754643Y-97025342D01*
X88722767Y-97427342D01*
X89771034Y-97428257D01*
X90739858Y-97027947D01*
X91481742Y-96287357D01*
X91883742Y-95319233D01*
X91884657Y-94270966D01*
X91484347Y-93302142D01*
X90743757Y-92560258D01*
X89775633Y-92158258D01*
X88727366Y-92157343D01*
X87758542Y-92557653D01*
X87016658Y-93298243D01*
X86614658Y-94266367D01*
X86613743Y-95314634D01*
X86608400Y-95314634D01*
X86608400Y-93676800D01*
X88986900Y-91298300D01*
X89200421Y-90978743D01*
X89275400Y-90601800D01*
X89275400Y-88821087D01*
X91122600Y-88821087D01*
X91122600Y-88877313D01*
X91231833Y-89426464D01*
X91542902Y-89892011D01*
X92008449Y-90203080D01*
X92557600Y-90312313D01*
X93106751Y-90203080D01*
X93572298Y-89892011D01*
X93827600Y-89509925D01*
X94082902Y-89892011D01*
X94548449Y-90203080D01*
X95097600Y-90312313D01*
X95646751Y-90203080D01*
X96112298Y-89892011D01*
X96367600Y-89509925D01*
X96622902Y-89892011D01*
X97088449Y-90203080D01*
X97637600Y-90312313D01*
X98186751Y-90203080D01*
X98652298Y-89892011D01*
X98907600Y-89509925D01*
X99162902Y-89892011D01*
X99628449Y-90203080D01*
X100177600Y-90312313D01*
X100726751Y-90203080D01*
X101192298Y-89892011D01*
X101447600Y-89509925D01*
X101702902Y-89892011D01*
X102168449Y-90203080D01*
X102717600Y-90312313D01*
X103082601Y-90239710D01*
X103082601Y-92069595D01*
X102778983Y-92373213D01*
X102563123Y-92156976D01*
X102035891Y-91938050D01*
X101465013Y-91937552D01*
X100937400Y-92155557D01*
X100533376Y-92558877D01*
X100364054Y-92966650D01*
X100196443Y-92561000D01*
X99793123Y-92156976D01*
X99265891Y-91938050D01*
X98695013Y-91937552D01*
X98167400Y-92155557D01*
X97763376Y-92558877D01*
X97594054Y-92966650D01*
X97426443Y-92561000D01*
X97023123Y-92156976D01*
X96495891Y-91938050D01*
X95925013Y-91937552D01*
X95397400Y-92155557D01*
X94993376Y-92558877D01*
X94774450Y-93086109D01*
X94773952Y-93656987D01*
X94991957Y-94184600D01*
X95395277Y-94588624D01*
X95922509Y-94807550D01*
X96493387Y-94808048D01*
X97021000Y-94590043D01*
X97425024Y-94186723D01*
X97594346Y-93778950D01*
X97761957Y-94184600D01*
X98165277Y-94588624D01*
X98692509Y-94807550D01*
X99263387Y-94808048D01*
X99791000Y-94590043D01*
X100195024Y-94186723D01*
X100364346Y-93778950D01*
X100531957Y-94184600D01*
X100935277Y-94588624D01*
X101462509Y-94807550D01*
X102033387Y-94808048D01*
X102374200Y-94667227D01*
X102374200Y-94974154D01*
X102322400Y-94995557D01*
X101918376Y-95398877D01*
X101749054Y-95806650D01*
X101581443Y-95401000D01*
X101178123Y-94996976D01*
X100650891Y-94778050D01*
X100080013Y-94777552D01*
X99552400Y-94995557D01*
X99148376Y-95398877D01*
X98979054Y-95806650D01*
X98811443Y-95401000D01*
X98408123Y-94996976D01*
X97880891Y-94778050D01*
X97310013Y-94777552D01*
X96782400Y-94995557D01*
X96378376Y-95398877D01*
X96159450Y-95926109D01*
X96158952Y-96496987D01*
X96376957Y-97024600D01*
X96780277Y-97428624D01*
X97307509Y-97647550D01*
X97878387Y-97648048D01*
X98406000Y-97430043D01*
X98810024Y-97026723D01*
X98979346Y-96618950D01*
X99146957Y-97024600D01*
X99550277Y-97428624D01*
X100077509Y-97647550D01*
X100648387Y-97648048D01*
X101176000Y-97430043D01*
X101580024Y-97026723D01*
X101749346Y-96618950D01*
X101916957Y-97024600D01*
X102320277Y-97428624D01*
X102847509Y-97647550D01*
X103418387Y-97648048D01*
X103946000Y-97430043D01*
X104350024Y-97026723D01*
X104519346Y-96618950D01*
X104686957Y-97024600D01*
X105090277Y-97428624D01*
X105617509Y-97647550D01*
X106188387Y-97648048D01*
X106716000Y-97430043D01*
X107120024Y-97026723D01*
X107338950Y-96499491D01*
X107339448Y-95928613D01*
X107121443Y-95401000D01*
X107035228Y-95314634D01*
X111613743Y-95314634D01*
X112014053Y-96283458D01*
X112754643Y-97025342D01*
X113722767Y-97427342D01*
X114771034Y-97428257D01*
X115739858Y-97027947D01*
X116481742Y-96287357D01*
X116883742Y-95319233D01*
X116884657Y-94270966D01*
X116484347Y-93302142D01*
X115743757Y-92560258D01*
X114775633Y-92158258D01*
X113727366Y-92157343D01*
X112758542Y-92557653D01*
X112016658Y-93298243D01*
X111614658Y-94266367D01*
X111613743Y-95314634D01*
X107035228Y-95314634D01*
X106718123Y-94996976D01*
X106190891Y-94778050D01*
X105620013Y-94777552D01*
X105092400Y-94995557D01*
X104688376Y-95398877D01*
X104519054Y-95806650D01*
X104351443Y-95401000D01*
X103948123Y-94996976D01*
X103894200Y-94974585D01*
X103894200Y-94667072D01*
X104232509Y-94807550D01*
X104803387Y-94808048D01*
X105331000Y-94590043D01*
X105735024Y-94186723D01*
X105841760Y-93929674D01*
X105841760Y-94172800D01*
X105886038Y-94408117D01*
X106025110Y-94624241D01*
X106237310Y-94769231D01*
X106489200Y-94820240D01*
X108089200Y-94820240D01*
X108324517Y-94775962D01*
X108540641Y-94636890D01*
X108685631Y-94424690D01*
X108736640Y-94172800D01*
X108736640Y-92572800D01*
X108692362Y-92337483D01*
X108553290Y-92121359D01*
X108341090Y-91976369D01*
X108089200Y-91925360D01*
X106489200Y-91925360D01*
X106253883Y-91969638D01*
X106037759Y-92108710D01*
X105892769Y-92320910D01*
X105841760Y-92572800D01*
X105841760Y-92815887D01*
X105736443Y-92561000D01*
X105333123Y-92156976D01*
X104805891Y-91938050D01*
X104602601Y-91937873D01*
X104602601Y-90132355D01*
X104708449Y-90203080D01*
X105257600Y-90312313D01*
X105806751Y-90203080D01*
X106272298Y-89892011D01*
X106527600Y-89509925D01*
X106782902Y-89892011D01*
X107248449Y-90203080D01*
X107797600Y-90312313D01*
X108346751Y-90203080D01*
X108812298Y-89892011D01*
X109067600Y-89509925D01*
X109322902Y-89892011D01*
X109788449Y-90203080D01*
X110337600Y-90312313D01*
X110886751Y-90203080D01*
X111352298Y-89892011D01*
X111607600Y-89509925D01*
X111862902Y-89892011D01*
X112328449Y-90203080D01*
X112877600Y-90312313D01*
X113426751Y-90203080D01*
X113892298Y-89892011D01*
X114147600Y-89509925D01*
X114402902Y-89892011D01*
X114868449Y-90203080D01*
X115417600Y-90312313D01*
X115966751Y-90203080D01*
X116432298Y-89892011D01*
X116743367Y-89426464D01*
X116852600Y-88877313D01*
X116852600Y-88821087D01*
X116743367Y-88271936D01*
X116432298Y-87806389D01*
X115966751Y-87495320D01*
X115417600Y-87386087D01*
X114868449Y-87495320D01*
X114402902Y-87806389D01*
X114147600Y-88188475D01*
X113892298Y-87806389D01*
X113426751Y-87495320D01*
X112877600Y-87386087D01*
X112328449Y-87495320D01*
X111862902Y-87806389D01*
X111607600Y-88188475D01*
X111352298Y-87806389D01*
X110886751Y-87495320D01*
X110337600Y-87386087D01*
X109788449Y-87495320D01*
X109322902Y-87806389D01*
X109067600Y-88188475D01*
X108812298Y-87806389D01*
X108346751Y-87495320D01*
X107797600Y-87386087D01*
X107248449Y-87495320D01*
X106782902Y-87806389D01*
X106527600Y-88188475D01*
X106272298Y-87806389D01*
X105806751Y-87495320D01*
X105257600Y-87386087D01*
X104708449Y-87495320D01*
X104602601Y-87566045D01*
X104602601Y-84090371D01*
X105795001Y-82897971D01*
X105959748Y-82651409D01*
X105998875Y-82454707D01*
X106272298Y-82272011D01*
X106527600Y-81889925D01*
X106782902Y-82272011D01*
X107248449Y-82583080D01*
X107797600Y-82692313D01*
X108346751Y-82583080D01*
X108812298Y-82272011D01*
X109067600Y-81889925D01*
X109322902Y-82272011D01*
X109788449Y-82583080D01*
X110337600Y-82692313D01*
X110886751Y-82583080D01*
X111352298Y-82272011D01*
X111607600Y-81889925D01*
X111862902Y-82272011D01*
X112328449Y-82583080D01*
X112877600Y-82692313D01*
X113426751Y-82583080D01*
X113892298Y-82272011D01*
X113988701Y-82127735D01*
X114014438Y-82264517D01*
X114153510Y-82480641D01*
X114365710Y-82625631D01*
X114617600Y-82676640D01*
X114786680Y-82676640D01*
X114880199Y-82816601D01*
X117030599Y-84967001D01*
X117277161Y-85131748D01*
X117568000Y-85189600D01*
X118141354Y-85189600D01*
X118162757Y-85241400D01*
X118566077Y-85645424D01*
X119093309Y-85864350D01*
X119664187Y-85864848D01*
X120191800Y-85646843D01*
X120595824Y-85243523D01*
X120814750Y-84716291D01*
X120815248Y-84145413D01*
X120597243Y-83617800D01*
X120193923Y-83213776D01*
X119666691Y-82994850D01*
X119095813Y-82994352D01*
X118568200Y-83212357D01*
X118164176Y-83615677D01*
X118141785Y-83669600D01*
X117882802Y-83669600D01*
X116684243Y-82471041D01*
X116814031Y-82281090D01*
X116865040Y-82029200D01*
X116865040Y-80429200D01*
X116820762Y-80193883D01*
X116681690Y-79977759D01*
X116469490Y-79832769D01*
X116217600Y-79781760D01*
X114617600Y-79781760D01*
X114382283Y-79826038D01*
X114166159Y-79965110D01*
X114021169Y-80177310D01*
X113989785Y-80332289D01*
X113892298Y-80186389D01*
X113426751Y-79875320D01*
X112877600Y-79766087D01*
X112328449Y-79875320D01*
X111862902Y-80186389D01*
X111607600Y-80568475D01*
X111352298Y-80186389D01*
X110886751Y-79875320D01*
X110337600Y-79766087D01*
X109788449Y-79875320D01*
X109322902Y-80186389D01*
X109067600Y-80568475D01*
X108812298Y-80186389D01*
X108346751Y-79875320D01*
X107797600Y-79766087D01*
X107248449Y-79875320D01*
X106782902Y-80186389D01*
X106527600Y-80568475D01*
X106272298Y-80186389D01*
X105806751Y-79875320D01*
X105257600Y-79766087D01*
X104708449Y-79875320D01*
X104242902Y-80186389D01*
X103987600Y-80568475D01*
X103732298Y-80186389D01*
X103266751Y-79875320D01*
X102717600Y-79766087D01*
X102168449Y-79875320D01*
X101702902Y-80186389D01*
X101447600Y-80568475D01*
X101192298Y-80186389D01*
X100726751Y-79875320D01*
X100177600Y-79766087D01*
X99628449Y-79875320D01*
X99162902Y-80186389D01*
X98907600Y-80568475D01*
X98652298Y-80186389D01*
X98186751Y-79875320D01*
X97637600Y-79766087D01*
X97088449Y-79875320D01*
X96622902Y-80186389D01*
X96367600Y-80568475D01*
X96112298Y-80186389D01*
X95646751Y-79875320D01*
X95097600Y-79766087D01*
X94548449Y-79875320D01*
X94082902Y-80186389D01*
X93812614Y-80590903D01*
X93709989Y-80374066D01*
X93295023Y-79998159D01*
X92906639Y-79837296D01*
X92684600Y-79959285D01*
X92684600Y-81102200D01*
X92704600Y-81102200D01*
X92704600Y-81356200D01*
X92684600Y-81356200D01*
X92684600Y-82499115D01*
X92906639Y-82621104D01*
X93295023Y-82460241D01*
X93709989Y-82084334D01*
X93812614Y-81867497D01*
X94082902Y-82272011D01*
X94548449Y-82583080D01*
X95097600Y-82692313D01*
X95646751Y-82583080D01*
X96112298Y-82272011D01*
X96367600Y-81889925D01*
X96622902Y-82272011D01*
X97088449Y-82583080D01*
X97637600Y-82692313D01*
X98186751Y-82583080D01*
X98652298Y-82272011D01*
X98907600Y-81889925D01*
X99162902Y-82272011D01*
X99628449Y-82583080D01*
X100177600Y-82692313D01*
X100726751Y-82583080D01*
X101192298Y-82272011D01*
X101447600Y-81889925D01*
X101702902Y-82272011D01*
X102168449Y-82583080D01*
X102717600Y-82692313D01*
X103266751Y-82583080D01*
X103732298Y-82272011D01*
X103987600Y-81889925D01*
X104242902Y-82272011D01*
X104259960Y-82283408D01*
X103305200Y-83238168D01*
X103140453Y-83484730D01*
X103082601Y-83775569D01*
X103082601Y-87458690D01*
X102717600Y-87386087D01*
X102168449Y-87495320D01*
X101702902Y-87806389D01*
X101447600Y-88188475D01*
X101192298Y-87806389D01*
X100726751Y-87495320D01*
X100177600Y-87386087D01*
X99628449Y-87495320D01*
X99162902Y-87806389D01*
X98907600Y-88188475D01*
X98652298Y-87806389D01*
X98186751Y-87495320D01*
X97637600Y-87386087D01*
X97088449Y-87495320D01*
X96622902Y-87806389D01*
X96367600Y-88188475D01*
X96112298Y-87806389D01*
X95646751Y-87495320D01*
X95097600Y-87386087D01*
X94548449Y-87495320D01*
X94082902Y-87806389D01*
X93827600Y-88188475D01*
X93572298Y-87806389D01*
X93106751Y-87495320D01*
X92557600Y-87386087D01*
X92008449Y-87495320D01*
X91542902Y-87806389D01*
X91231833Y-88271936D01*
X91122600Y-88821087D01*
X89275400Y-88821087D01*
X89275400Y-88721345D01*
X89506224Y-88490923D01*
X89725150Y-87963691D01*
X89725648Y-87392813D01*
X89507643Y-86865200D01*
X89104323Y-86461176D01*
X88577091Y-86242250D01*
X88006213Y-86241752D01*
X87478600Y-86459757D01*
X87074576Y-86863077D01*
X86855650Y-87390309D01*
X86855152Y-87961187D01*
X87073157Y-88488800D01*
X87305400Y-88721448D01*
X87305400Y-90193800D01*
X84926900Y-92572300D01*
X84713379Y-92891857D01*
X84638400Y-93268800D01*
X84250000Y-93268800D01*
X84250000Y-83684745D01*
X87462261Y-83684745D01*
X87536395Y-83930864D01*
X88073623Y-84123965D01*
X88643854Y-84096778D01*
X89044405Y-83930864D01*
X89118539Y-83684745D01*
X88290400Y-82856605D01*
X87462261Y-83684745D01*
X84250000Y-83684745D01*
X84250000Y-82460223D01*
X86843435Y-82460223D01*
X86870622Y-83030454D01*
X87036536Y-83431005D01*
X87282655Y-83505139D01*
X88110795Y-82677000D01*
X88470005Y-82677000D01*
X89298145Y-83505139D01*
X89544264Y-83431005D01*
X89737365Y-82893777D01*
X89710178Y-82323546D01*
X89544264Y-81922995D01*
X89298145Y-81848861D01*
X88470005Y-82677000D01*
X88110795Y-82677000D01*
X87282655Y-81848861D01*
X87036536Y-81922995D01*
X86843435Y-82460223D01*
X84250000Y-82460223D01*
X84250000Y-81669255D01*
X87462261Y-81669255D01*
X88290400Y-82497395D01*
X89118539Y-81669255D01*
X89091125Y-81578241D01*
X91165686Y-81578241D01*
X91405211Y-82084334D01*
X91820177Y-82460241D01*
X92208561Y-82621104D01*
X92430600Y-82499115D01*
X92430600Y-81356200D01*
X91286971Y-81356200D01*
X91165686Y-81578241D01*
X89091125Y-81578241D01*
X89044405Y-81423136D01*
X88507177Y-81230035D01*
X87936946Y-81257222D01*
X87536395Y-81423136D01*
X87462261Y-81669255D01*
X84250000Y-81669255D01*
X84250000Y-80880159D01*
X91165686Y-80880159D01*
X91286971Y-81102200D01*
X92430600Y-81102200D01*
X92430600Y-79959285D01*
X92208561Y-79837296D01*
X91820177Y-79998159D01*
X91405211Y-80374066D01*
X91165686Y-80880159D01*
X84250000Y-80880159D01*
X84250000Y-79432150D01*
X85714000Y-79432150D01*
X85714000Y-80172710D01*
X85810673Y-80406099D01*
X85989302Y-80584727D01*
X86222691Y-80681400D01*
X86963250Y-80681400D01*
X87122000Y-80522650D01*
X87122000Y-79273400D01*
X85872750Y-79273400D01*
X85714000Y-79432150D01*
X84250000Y-79432150D01*
X84250000Y-78120090D01*
X85714000Y-78120090D01*
X85714000Y-78860650D01*
X85872750Y-79019400D01*
X87122000Y-79019400D01*
X87122000Y-77770150D01*
X87376000Y-77770150D01*
X87376000Y-79019400D01*
X87396000Y-79019400D01*
X87396000Y-79273400D01*
X87376000Y-79273400D01*
X87376000Y-80522650D01*
X87534750Y-80681400D01*
X88275309Y-80681400D01*
X88508698Y-80584727D01*
X88687327Y-80406099D01*
X88743119Y-80271406D01*
X88918357Y-80446951D01*
X89482330Y-80681133D01*
X90092991Y-80681665D01*
X90657371Y-80448468D01*
X91089551Y-80017043D01*
X91323733Y-79453070D01*
X91324265Y-78842409D01*
X91091068Y-78278029D01*
X90659643Y-77845849D01*
X90095670Y-77611667D01*
X89485009Y-77611135D01*
X88920629Y-77844332D01*
X88743159Y-78021492D01*
X88687327Y-77886701D01*
X88508698Y-77708073D01*
X88275309Y-77611400D01*
X87534750Y-77611400D01*
X87376000Y-77770150D01*
X87122000Y-77770150D01*
X86963250Y-77611400D01*
X86222691Y-77611400D01*
X85989302Y-77708073D01*
X85810673Y-77886701D01*
X85714000Y-78120090D01*
X84250000Y-78120090D01*
X84250000Y-76230187D01*
X87413952Y-76230187D01*
X87631957Y-76757800D01*
X88035277Y-77161824D01*
X88562509Y-77380750D01*
X89133387Y-77381248D01*
X89661000Y-77163243D01*
X90065024Y-76759923D01*
X90283950Y-76232691D01*
X90284200Y-75946000D01*
X95006087Y-75946000D01*
X95115320Y-76495151D01*
X95426389Y-76960698D01*
X95891936Y-77271767D01*
X96441087Y-77381000D01*
X96497313Y-77381000D01*
X97046464Y-77271767D01*
X97107941Y-77230689D01*
X99585143Y-77230689D01*
X99810744Y-77776686D01*
X100228117Y-78194788D01*
X100773719Y-78421342D01*
X101364489Y-78421857D01*
X101910486Y-78196256D01*
X102126560Y-77980558D01*
X102706047Y-77980558D01*
X102786320Y-78231859D01*
X103341679Y-78433318D01*
X103931858Y-78406915D01*
X104354480Y-78231859D01*
X104434753Y-77980558D01*
X103570400Y-77116205D01*
X102706047Y-77980558D01*
X102126560Y-77980558D01*
X102328588Y-77778883D01*
X102343667Y-77742569D01*
X102526442Y-77800953D01*
X103390795Y-76936600D01*
X103750005Y-76936600D01*
X104614358Y-77800953D01*
X104796704Y-77742706D01*
X104810744Y-77776686D01*
X105228117Y-78194788D01*
X105773719Y-78421342D01*
X106364489Y-78421857D01*
X106910486Y-78196256D01*
X107328588Y-77778883D01*
X107555142Y-77233281D01*
X107555657Y-76642511D01*
X107330056Y-76096514D01*
X106912683Y-75678412D01*
X106367081Y-75451858D01*
X105776311Y-75451343D01*
X105230314Y-75676944D01*
X104812212Y-76094317D01*
X104797133Y-76130631D01*
X104614358Y-76072247D01*
X103750005Y-76936600D01*
X103390795Y-76936600D01*
X102526442Y-76072247D01*
X102344096Y-76130494D01*
X102330056Y-76096514D01*
X102126540Y-75892642D01*
X102706047Y-75892642D01*
X103570400Y-76756995D01*
X104434753Y-75892642D01*
X104354480Y-75641341D01*
X103799121Y-75439882D01*
X103208942Y-75466285D01*
X102786320Y-75641341D01*
X102706047Y-75892642D01*
X102126540Y-75892642D01*
X101912683Y-75678412D01*
X101367081Y-75451858D01*
X100776311Y-75451343D01*
X100230314Y-75676944D01*
X99812212Y-76094317D01*
X99585658Y-76639919D01*
X99585143Y-77230689D01*
X97107941Y-77230689D01*
X97512011Y-76960698D01*
X97823080Y-76495151D01*
X97932313Y-75946000D01*
X97823080Y-75396849D01*
X97512011Y-74931302D01*
X97369981Y-74836400D01*
X112695360Y-74836400D01*
X112695360Y-75836400D01*
X112739638Y-76071717D01*
X112878710Y-76287841D01*
X113090910Y-76432831D01*
X113342800Y-76483840D01*
X113977906Y-76483840D01*
X113977681Y-76741517D01*
X113618025Y-76741203D01*
X113200714Y-76913633D01*
X112881155Y-77232635D01*
X112707997Y-77649644D01*
X112707603Y-78101175D01*
X112880033Y-78518486D01*
X113199035Y-78838045D01*
X113616044Y-79011203D01*
X114067575Y-79011597D01*
X114484886Y-78839167D01*
X114804445Y-78520165D01*
X114977603Y-78103156D01*
X114977919Y-77741283D01*
X115337575Y-77741597D01*
X115754886Y-77569167D01*
X116074445Y-77250165D01*
X116247603Y-76833156D01*
X116247997Y-76381625D01*
X116130144Y-76096400D01*
X117530721Y-76096400D01*
X117653910Y-76287841D01*
X117866110Y-76432831D01*
X118118000Y-76483840D01*
X118753106Y-76483840D01*
X118752881Y-76741517D01*
X118393225Y-76741203D01*
X117975914Y-76913633D01*
X117656355Y-77232635D01*
X117483197Y-77649644D01*
X117482803Y-78101175D01*
X117655233Y-78518486D01*
X117974235Y-78838045D01*
X118391244Y-79011203D01*
X118842775Y-79011597D01*
X119260086Y-78839167D01*
X119579645Y-78520165D01*
X119752803Y-78103156D01*
X119753119Y-77741283D01*
X120112775Y-77741597D01*
X120530086Y-77569167D01*
X120849645Y-77250165D01*
X121022803Y-76833156D01*
X121023197Y-76381625D01*
X120850767Y-75964314D01*
X120648000Y-75761193D01*
X120648000Y-74803000D01*
X120590148Y-74512161D01*
X120425401Y-74265599D01*
X119065214Y-72905412D01*
X119249624Y-72721323D01*
X119468550Y-72194091D01*
X119469048Y-71623213D01*
X119251043Y-71095600D01*
X118847723Y-70691576D01*
X118320491Y-70472650D01*
X117749613Y-70472152D01*
X117222000Y-70690157D01*
X116817976Y-71093477D01*
X116599050Y-71620709D01*
X116598552Y-72191587D01*
X116816557Y-72719200D01*
X117219877Y-73123224D01*
X117316474Y-73163335D01*
X117331652Y-73239639D01*
X117496399Y-73486201D01*
X118199158Y-74188960D01*
X118118000Y-74188960D01*
X117882683Y-74233238D01*
X117666559Y-74372310D01*
X117527110Y-74576400D01*
X114930079Y-74576400D01*
X114806890Y-74384959D01*
X114594690Y-74239969D01*
X114342800Y-74188960D01*
X113342800Y-74188960D01*
X113107483Y-74233238D01*
X112891359Y-74372310D01*
X112746369Y-74584510D01*
X112695360Y-74836400D01*
X97369981Y-74836400D01*
X97046464Y-74620233D01*
X96497313Y-74511000D01*
X96441087Y-74511000D01*
X95891936Y-74620233D01*
X95426389Y-74931302D01*
X95115320Y-75396849D01*
X95006087Y-75946000D01*
X90284200Y-75946000D01*
X90284448Y-75661813D01*
X90066443Y-75134200D01*
X89663123Y-74730176D01*
X89135891Y-74511250D01*
X88565013Y-74510752D01*
X88037400Y-74728757D01*
X87633376Y-75132077D01*
X87414450Y-75659309D01*
X87413952Y-76230187D01*
X84250000Y-76230187D01*
X84250000Y-60883800D01*
X86725687Y-60883800D01*
X86834920Y-61432951D01*
X87145989Y-61898498D01*
X87203800Y-61937126D01*
X87203800Y-67538600D01*
X87278779Y-67915543D01*
X87492300Y-68235100D01*
X88940100Y-69682900D01*
X89259657Y-69896421D01*
X89636600Y-69971400D01*
X98321800Y-69971400D01*
X99395800Y-71045400D01*
X99395800Y-71708345D01*
X99366102Y-71728189D01*
X99110800Y-72110275D01*
X98855498Y-71728189D01*
X98389951Y-71417120D01*
X97840800Y-71307887D01*
X97291649Y-71417120D01*
X96826102Y-71728189D01*
X96570800Y-72110275D01*
X96315498Y-71728189D01*
X95849951Y-71417120D01*
X95300800Y-71307887D01*
X94751649Y-71417120D01*
X94286102Y-71728189D01*
X94030800Y-72110275D01*
X93775498Y-71728189D01*
X93309951Y-71417120D01*
X92760800Y-71307887D01*
X92211649Y-71417120D01*
X91746102Y-71728189D01*
X91490800Y-72110275D01*
X91235498Y-71728189D01*
X90769951Y-71417120D01*
X90220800Y-71307887D01*
X89671649Y-71417120D01*
X89206102Y-71728189D01*
X88895033Y-72193736D01*
X88785800Y-72742887D01*
X88785800Y-72799113D01*
X88895033Y-73348264D01*
X89206102Y-73813811D01*
X89671649Y-74124880D01*
X90220800Y-74234113D01*
X90769951Y-74124880D01*
X91235498Y-73813811D01*
X91490800Y-73431725D01*
X91746102Y-73813811D01*
X92211649Y-74124880D01*
X92760800Y-74234113D01*
X93309951Y-74124880D01*
X93775498Y-73813811D01*
X94030800Y-73431725D01*
X94286102Y-73813811D01*
X94751649Y-74124880D01*
X95300800Y-74234113D01*
X95849951Y-74124880D01*
X96315498Y-73813811D01*
X96570800Y-73431725D01*
X96826102Y-73813811D01*
X97291649Y-74124880D01*
X97840800Y-74234113D01*
X98389951Y-74124880D01*
X98855498Y-73813811D01*
X99110800Y-73431725D01*
X99366102Y-73813811D01*
X99831649Y-74124880D01*
X100380800Y-74234113D01*
X100929951Y-74124880D01*
X101395498Y-73813811D01*
X101650800Y-73431725D01*
X101906102Y-73813811D01*
X102371649Y-74124880D01*
X102920800Y-74234113D01*
X103469951Y-74124880D01*
X103935498Y-73813811D01*
X104190800Y-73431725D01*
X104446102Y-73813811D01*
X104911649Y-74124880D01*
X105460800Y-74234113D01*
X106009951Y-74124880D01*
X106475498Y-73813811D01*
X106730800Y-73431725D01*
X106986102Y-73813811D01*
X107451649Y-74124880D01*
X108000800Y-74234113D01*
X108549951Y-74124880D01*
X109015498Y-73813811D01*
X109270800Y-73431725D01*
X109526102Y-73813811D01*
X109991649Y-74124880D01*
X110540800Y-74234113D01*
X111089951Y-74124880D01*
X111555498Y-73813811D01*
X111866567Y-73348264D01*
X111975800Y-72799113D01*
X111975800Y-72742887D01*
X111866567Y-72193736D01*
X111865132Y-72191587D01*
X112813952Y-72191587D01*
X113031957Y-72719200D01*
X113435277Y-73123224D01*
X113962509Y-73342150D01*
X114533387Y-73342648D01*
X115061000Y-73124643D01*
X115465024Y-72721323D01*
X115683950Y-72194091D01*
X115684448Y-71623213D01*
X115466443Y-71095600D01*
X115063123Y-70691576D01*
X114535891Y-70472650D01*
X113965013Y-70472152D01*
X113437400Y-70690157D01*
X113033376Y-71093477D01*
X112814450Y-71620709D01*
X112813952Y-72191587D01*
X111865132Y-72191587D01*
X111555498Y-71728189D01*
X111089951Y-71417120D01*
X110540800Y-71307887D01*
X109991649Y-71417120D01*
X109526102Y-71728189D01*
X109270800Y-72110275D01*
X109015498Y-71728189D01*
X108756397Y-71555063D01*
X108702948Y-71286361D01*
X108538201Y-71039799D01*
X107369801Y-69871399D01*
X107123239Y-69706652D01*
X106832400Y-69648800D01*
X105166002Y-69648800D01*
X102410800Y-66893598D01*
X102410800Y-66512668D01*
X102920800Y-66614113D01*
X103469951Y-66504880D01*
X103935498Y-66193811D01*
X104190800Y-65811725D01*
X104446102Y-66193811D01*
X104911649Y-66504880D01*
X105460800Y-66614113D01*
X106009951Y-66504880D01*
X106475498Y-66193811D01*
X106730800Y-65811725D01*
X106986102Y-66193811D01*
X107451649Y-66504880D01*
X108000800Y-66614113D01*
X108549951Y-66504880D01*
X109015498Y-66193811D01*
X109111901Y-66049535D01*
X109137638Y-66186317D01*
X109276710Y-66402441D01*
X109488910Y-66547431D01*
X109740800Y-66598440D01*
X111340800Y-66598440D01*
X111576117Y-66554162D01*
X111792241Y-66415090D01*
X111937231Y-66202890D01*
X111988240Y-65951000D01*
X111988240Y-64351000D01*
X111970983Y-64259287D01*
X112814200Y-64259287D01*
X112814200Y-64315513D01*
X112923433Y-64864664D01*
X113234502Y-65330211D01*
X113700049Y-65641280D01*
X114249200Y-65750513D01*
X114798351Y-65641280D01*
X115263898Y-65330211D01*
X115574967Y-64864664D01*
X115684200Y-64315513D01*
X115684200Y-64259287D01*
X116598800Y-64259287D01*
X116598800Y-64315513D01*
X116708033Y-64864664D01*
X117019102Y-65330211D01*
X117484649Y-65641280D01*
X118033800Y-65750513D01*
X118582951Y-65641280D01*
X119048498Y-65330211D01*
X119359567Y-64864664D01*
X119468800Y-64315513D01*
X119468800Y-64259287D01*
X119359567Y-63710136D01*
X119048498Y-63244589D01*
X118582951Y-62933520D01*
X118033800Y-62824287D01*
X117484649Y-62933520D01*
X117019102Y-63244589D01*
X116708033Y-63710136D01*
X116598800Y-64259287D01*
X115684200Y-64259287D01*
X115574967Y-63710136D01*
X115263898Y-63244589D01*
X114798351Y-62933520D01*
X114249200Y-62824287D01*
X113700049Y-62933520D01*
X113234502Y-63244589D01*
X112923433Y-63710136D01*
X112814200Y-64259287D01*
X111970983Y-64259287D01*
X111943962Y-64115683D01*
X111804890Y-63899559D01*
X111592690Y-63754569D01*
X111340800Y-63703560D01*
X109740800Y-63703560D01*
X109505483Y-63747838D01*
X109289359Y-63886910D01*
X109144369Y-64099110D01*
X109112985Y-64254089D01*
X109015498Y-64108189D01*
X108549951Y-63797120D01*
X108000800Y-63687887D01*
X107451649Y-63797120D01*
X106986102Y-64108189D01*
X106730800Y-64490275D01*
X106475498Y-64108189D01*
X106009951Y-63797120D01*
X105460800Y-63687887D01*
X104911649Y-63797120D01*
X104446102Y-64108189D01*
X104190800Y-64490275D01*
X103935498Y-64108189D01*
X103469951Y-63797120D01*
X102920800Y-63687887D01*
X102371649Y-63797120D01*
X102348723Y-63812438D01*
X102188201Y-63572199D01*
X100537108Y-61921106D01*
X100576709Y-61937550D01*
X101147587Y-61938048D01*
X101675200Y-61720043D01*
X102079224Y-61316723D01*
X102298150Y-60789491D01*
X102298152Y-60786987D01*
X102704752Y-60786987D01*
X102922757Y-61314600D01*
X103326077Y-61718624D01*
X103853309Y-61937550D01*
X104424187Y-61938048D01*
X104951800Y-61720043D01*
X105355824Y-61316723D01*
X105574750Y-60789491D01*
X105575248Y-60218613D01*
X105357243Y-59691000D01*
X104953923Y-59286976D01*
X104426691Y-59068050D01*
X103855813Y-59067552D01*
X103328200Y-59285557D01*
X102924176Y-59688877D01*
X102705250Y-60216109D01*
X102704752Y-60786987D01*
X102298152Y-60786987D01*
X102298648Y-60218613D01*
X102080643Y-59691000D01*
X101677323Y-59286976D01*
X101150091Y-59068050D01*
X100579213Y-59067552D01*
X100051600Y-59285557D01*
X99647576Y-59688877D01*
X99428650Y-60216109D01*
X99428152Y-60786987D01*
X99445870Y-60829868D01*
X98962401Y-60346399D01*
X98715839Y-60181652D01*
X98425000Y-60123800D01*
X97047446Y-60123800D01*
X97026043Y-60072000D01*
X96622723Y-59667976D01*
X96095491Y-59449050D01*
X95524613Y-59448552D01*
X94997000Y-59666557D01*
X94592976Y-60069877D01*
X94374050Y-60597109D01*
X94373552Y-61167987D01*
X94591557Y-61695600D01*
X94994877Y-62099624D01*
X95522109Y-62318550D01*
X96092987Y-62319048D01*
X96620600Y-62101043D01*
X97024624Y-61697723D01*
X97047015Y-61643800D01*
X98110198Y-61643800D01*
X100253798Y-63787400D01*
X100253798Y-63881084D01*
X100031761Y-63759096D01*
X99643377Y-63919959D01*
X99228411Y-64295866D01*
X99125786Y-64512703D01*
X98855498Y-64108189D01*
X98389951Y-63797120D01*
X97840800Y-63687887D01*
X97291649Y-63797120D01*
X96826102Y-64108189D01*
X96570800Y-64490275D01*
X96315498Y-64108189D01*
X95849951Y-63797120D01*
X95300800Y-63687887D01*
X94751649Y-63797120D01*
X94286102Y-64108189D01*
X94030800Y-64490275D01*
X93775498Y-64108189D01*
X93309951Y-63797120D01*
X92760800Y-63687887D01*
X92211649Y-63797120D01*
X91746102Y-64108189D01*
X91490800Y-64490275D01*
X91235498Y-64108189D01*
X90769951Y-63797120D01*
X90220800Y-63687887D01*
X89671649Y-63797120D01*
X89206102Y-64108189D01*
X89173800Y-64156532D01*
X89173800Y-61937126D01*
X89231611Y-61898498D01*
X89542680Y-61432951D01*
X89651913Y-60883800D01*
X89542680Y-60334649D01*
X89231611Y-59869102D01*
X88766064Y-59558033D01*
X88216913Y-59448800D01*
X88160687Y-59448800D01*
X87611536Y-59558033D01*
X87145989Y-59869102D01*
X86834920Y-60334649D01*
X86725687Y-60883800D01*
X84250000Y-60883800D01*
X84250000Y-57607200D01*
X86725687Y-57607200D01*
X86834920Y-58156351D01*
X87145989Y-58621898D01*
X87611536Y-58932967D01*
X88160687Y-59042200D01*
X88216913Y-59042200D01*
X88766064Y-58932967D01*
X89231611Y-58621898D01*
X89542680Y-58156351D01*
X89651913Y-57607200D01*
X89640280Y-57548720D01*
X90857400Y-56331600D01*
X95138235Y-56331600D01*
X94997000Y-56389957D01*
X94592976Y-56793277D01*
X94374050Y-57320509D01*
X94373552Y-57891387D01*
X94591557Y-58419000D01*
X94994877Y-58823024D01*
X95522109Y-59041950D01*
X96092987Y-59042448D01*
X96620600Y-58824443D01*
X97024624Y-58421123D01*
X97243550Y-57893891D01*
X97244048Y-57323013D01*
X97026043Y-56795400D01*
X96622723Y-56391376D01*
X96478767Y-56331600D01*
X97268230Y-56331600D01*
X97645173Y-56256621D01*
X97964730Y-56043100D01*
X98049030Y-55958800D01*
X105927960Y-55958800D01*
X105927960Y-59458800D01*
X105972238Y-59694117D01*
X106111310Y-59910241D01*
X106323510Y-60055231D01*
X106575400Y-60106240D01*
X110075400Y-60106240D01*
X110310717Y-60061962D01*
X110526841Y-59922890D01*
X110671831Y-59710690D01*
X110722840Y-59458800D01*
X110722840Y-57994550D01*
X111940400Y-57994550D01*
X111940400Y-59585110D01*
X112037073Y-59818499D01*
X112215702Y-59997127D01*
X112449091Y-60093800D01*
X114039650Y-60093800D01*
X114198400Y-59935050D01*
X114198400Y-57835800D01*
X114452400Y-57835800D01*
X114452400Y-59935050D01*
X114611150Y-60093800D01*
X116201709Y-60093800D01*
X116435098Y-59997127D01*
X116613727Y-59818499D01*
X116710400Y-59585110D01*
X116710400Y-57994550D01*
X116551650Y-57835800D01*
X114452400Y-57835800D01*
X114198400Y-57835800D01*
X112099150Y-57835800D01*
X111940400Y-57994550D01*
X110722840Y-57994550D01*
X110722840Y-55958800D01*
X110678562Y-55723483D01*
X110539490Y-55507359D01*
X110391497Y-55406240D01*
X112250063Y-55406240D01*
X112215702Y-55420473D01*
X112037073Y-55599101D01*
X111940400Y-55832490D01*
X111940400Y-57423050D01*
X112099150Y-57581800D01*
X114198400Y-57581800D01*
X114198400Y-55482550D01*
X114452400Y-55482550D01*
X114452400Y-57581800D01*
X116551650Y-57581800D01*
X116710400Y-57423050D01*
X116710400Y-55832490D01*
X116613727Y-55599101D01*
X116435098Y-55420473D01*
X116201709Y-55323800D01*
X114611150Y-55323800D01*
X114452400Y-55482550D01*
X114198400Y-55482550D01*
X114039650Y-55323800D01*
X113370022Y-55323800D01*
X113526841Y-55222890D01*
X113671831Y-55010690D01*
X113722840Y-54758800D01*
X113722840Y-51258800D01*
X113678562Y-51023483D01*
X113539490Y-50807359D01*
X113327290Y-50662369D01*
X113075400Y-50611360D01*
X109575400Y-50611360D01*
X109340083Y-50655638D01*
X109123959Y-50794710D01*
X108978969Y-51006910D01*
X108927960Y-51258800D01*
X108927960Y-54758800D01*
X108972238Y-54994117D01*
X109111310Y-55210241D01*
X109259303Y-55311360D01*
X106575400Y-55311360D01*
X106340083Y-55355638D01*
X106123959Y-55494710D01*
X105978969Y-55706910D01*
X105927960Y-55958800D01*
X98049030Y-55958800D01*
X99988685Y-54019145D01*
X100314249Y-54236680D01*
X100863400Y-54345913D01*
X101412551Y-54236680D01*
X101878098Y-53925611D01*
X102189167Y-53460064D01*
X102298400Y-52910913D01*
X102298400Y-52854687D01*
X102705000Y-52854687D01*
X102705000Y-52910913D01*
X102814233Y-53460064D01*
X103125302Y-53925611D01*
X103590849Y-54236680D01*
X104140000Y-54345913D01*
X104689151Y-54236680D01*
X105154698Y-53925611D01*
X105465767Y-53460064D01*
X105575000Y-52910913D01*
X105575000Y-52854687D01*
X105465767Y-52305536D01*
X105154698Y-51839989D01*
X104689151Y-51528920D01*
X104140000Y-51419687D01*
X103590849Y-51528920D01*
X103125302Y-51839989D01*
X102814233Y-52305536D01*
X102705000Y-52854687D01*
X102298400Y-52854687D01*
X102189167Y-52305536D01*
X101878098Y-51839989D01*
X101412551Y-51528920D01*
X100863400Y-51419687D01*
X100314249Y-51528920D01*
X99848702Y-51839989D01*
X99810074Y-51897800D01*
X99732030Y-51897800D01*
X99355087Y-51972779D01*
X99035530Y-52186300D01*
X96860230Y-54361600D01*
X90449400Y-54361600D01*
X90072457Y-54436579D01*
X89752900Y-54650100D01*
X88228496Y-56174504D01*
X88216913Y-56172200D01*
X88160687Y-56172200D01*
X87611536Y-56281433D01*
X87145989Y-56592502D01*
X86834920Y-57058049D01*
X86725687Y-57607200D01*
X84250000Y-57607200D01*
X84250000Y-52103461D01*
X87255958Y-52103461D01*
X87468190Y-52617103D01*
X87860830Y-53010429D01*
X88374100Y-53223557D01*
X88929861Y-53224042D01*
X89443503Y-53011810D01*
X89836829Y-52619170D01*
X90049957Y-52105900D01*
X90050442Y-51550139D01*
X89838210Y-51036497D01*
X89445570Y-50643171D01*
X89301697Y-50583430D01*
X89384343Y-50549197D01*
X89453808Y-50307013D01*
X88653200Y-49506405D01*
X87852592Y-50307013D01*
X87922057Y-50549197D01*
X88010567Y-50580774D01*
X87862897Y-50641790D01*
X87469571Y-51034430D01*
X87256443Y-51547700D01*
X87255958Y-52103461D01*
X84250000Y-52103461D01*
X84250000Y-49119102D01*
X87244056Y-49119102D01*
X87271838Y-49674168D01*
X87430803Y-50057943D01*
X87672987Y-50127408D01*
X88473595Y-49326800D01*
X88832805Y-49326800D01*
X89529521Y-50023516D01*
X89568190Y-50117103D01*
X89960830Y-50510429D01*
X90474100Y-50723557D01*
X91029861Y-50724042D01*
X91543503Y-50511810D01*
X91936829Y-50119170D01*
X92053223Y-49838861D01*
X92168190Y-50117103D01*
X92560830Y-50510429D01*
X93074100Y-50723557D01*
X93629861Y-50724042D01*
X94143503Y-50511810D01*
X94403309Y-50252458D01*
X94660830Y-50510429D01*
X94820428Y-50576700D01*
X94662897Y-50641790D01*
X94269571Y-51034430D01*
X94056443Y-51547700D01*
X94055958Y-52103461D01*
X94268190Y-52617103D01*
X94660830Y-53010429D01*
X95174100Y-53223557D01*
X95729861Y-53224042D01*
X96243503Y-53011810D01*
X96636829Y-52619170D01*
X96849957Y-52105900D01*
X96850442Y-51550139D01*
X96638210Y-51036497D01*
X96245570Y-50643171D01*
X96085972Y-50576900D01*
X96243503Y-50511810D01*
X96636829Y-50119170D01*
X96849957Y-49605900D01*
X96850442Y-49050139D01*
X96638210Y-48536497D01*
X96245570Y-48143171D01*
X95732300Y-47930043D01*
X95176539Y-47929558D01*
X94662897Y-48141790D01*
X94403091Y-48401142D01*
X94145570Y-48143171D01*
X93632300Y-47930043D01*
X93076539Y-47929558D01*
X92562897Y-48141790D01*
X92169571Y-48534430D01*
X92053177Y-48814739D01*
X91938210Y-48536497D01*
X91545570Y-48143171D01*
X91032300Y-47930043D01*
X90476539Y-47929558D01*
X89962897Y-48141790D01*
X89569571Y-48534430D01*
X89530087Y-48629518D01*
X88832805Y-49326800D01*
X88473595Y-49326800D01*
X87672987Y-48526192D01*
X87430803Y-48595657D01*
X87244056Y-49119102D01*
X84250000Y-49119102D01*
X84250000Y-48185682D01*
X84451310Y-48323231D01*
X84703200Y-48374240D01*
X85903200Y-48374240D01*
X86050162Y-48346587D01*
X87852592Y-48346587D01*
X88653200Y-49147195D01*
X89453808Y-48346587D01*
X89384343Y-48104403D01*
X88860898Y-47917656D01*
X88305832Y-47945438D01*
X87922057Y-48104403D01*
X87852592Y-48346587D01*
X86050162Y-48346587D01*
X86138517Y-48329962D01*
X86354641Y-48190890D01*
X86499631Y-47978690D01*
X86550640Y-47726800D01*
X86550640Y-44926800D01*
X90005760Y-44926800D01*
X90005760Y-46126800D01*
X90050038Y-46362117D01*
X90189110Y-46578241D01*
X90401310Y-46723231D01*
X90653200Y-46774240D01*
X93453200Y-46774240D01*
X93688517Y-46729962D01*
X93904641Y-46590890D01*
X94049631Y-46378690D01*
X94100640Y-46126800D01*
X94100640Y-44926800D01*
X97555760Y-44926800D01*
X97555760Y-47726800D01*
X97600038Y-47962117D01*
X97739110Y-48178241D01*
X97951310Y-48323231D01*
X98203200Y-48374240D01*
X99403200Y-48374240D01*
X99638517Y-48329962D01*
X99854641Y-48190890D01*
X99999631Y-47978690D01*
X100050640Y-47726800D01*
X100050640Y-46367800D01*
X101233960Y-46367800D01*
X101233960Y-47967800D01*
X101278238Y-48203117D01*
X101417310Y-48419241D01*
X101629510Y-48564231D01*
X101881400Y-48615240D01*
X103481400Y-48615240D01*
X103716717Y-48570962D01*
X103932841Y-48431890D01*
X104077831Y-48219690D01*
X104086770Y-48175545D01*
X104353261Y-48175545D01*
X104427395Y-48421664D01*
X104964623Y-48614765D01*
X105534854Y-48587578D01*
X105935405Y-48421664D01*
X105947822Y-48380439D01*
X108640896Y-48380439D01*
X108801759Y-48768823D01*
X109177666Y-49183789D01*
X109683759Y-49423314D01*
X109905800Y-49302029D01*
X109905800Y-48158400D01*
X110159800Y-48158400D01*
X110159800Y-49302029D01*
X110381841Y-49423314D01*
X110887934Y-49183789D01*
X111263841Y-48768823D01*
X111424704Y-48380439D01*
X111302715Y-48158400D01*
X110159800Y-48158400D01*
X109905800Y-48158400D01*
X108762885Y-48158400D01*
X108640896Y-48380439D01*
X105947822Y-48380439D01*
X106009539Y-48175545D01*
X105181400Y-47347405D01*
X104353261Y-48175545D01*
X104086770Y-48175545D01*
X104126046Y-47981599D01*
X104173655Y-47995939D01*
X105001795Y-47167800D01*
X105361005Y-47167800D01*
X106189145Y-47995939D01*
X106435264Y-47921805D01*
X106628365Y-47384577D01*
X106601178Y-46814346D01*
X106435264Y-46413795D01*
X106189145Y-46339661D01*
X105361005Y-47167800D01*
X105001795Y-47167800D01*
X104173655Y-46339661D01*
X104126233Y-46353945D01*
X104089751Y-46160055D01*
X104353261Y-46160055D01*
X105181400Y-46988195D01*
X106009539Y-46160055D01*
X105935405Y-45913936D01*
X105398177Y-45720835D01*
X104827946Y-45748022D01*
X104427395Y-45913936D01*
X104353261Y-46160055D01*
X104089751Y-46160055D01*
X104084562Y-46132483D01*
X103945490Y-45916359D01*
X103733290Y-45771369D01*
X103481400Y-45720360D01*
X101881400Y-45720360D01*
X101646083Y-45764638D01*
X101429959Y-45903710D01*
X101284969Y-46115910D01*
X101233960Y-46367800D01*
X100050640Y-46367800D01*
X100050640Y-45491400D01*
X108569687Y-45491400D01*
X108678920Y-46040551D01*
X108989989Y-46506098D01*
X109394503Y-46776386D01*
X109177666Y-46879011D01*
X108801759Y-47293977D01*
X108640896Y-47682361D01*
X108762885Y-47904400D01*
X109905800Y-47904400D01*
X109905800Y-47884400D01*
X110159800Y-47884400D01*
X110159800Y-47904400D01*
X111302715Y-47904400D01*
X111424704Y-47682361D01*
X111263841Y-47293977D01*
X110887934Y-46879011D01*
X110671097Y-46776386D01*
X111075611Y-46506098D01*
X111386680Y-46040551D01*
X111495913Y-45491400D01*
X116189687Y-45491400D01*
X116298920Y-46040551D01*
X116609989Y-46506098D01*
X116754265Y-46602501D01*
X116617483Y-46628238D01*
X116401359Y-46767310D01*
X116256369Y-46979510D01*
X116205360Y-47231400D01*
X116205360Y-48831400D01*
X116249638Y-49066717D01*
X116388710Y-49282841D01*
X116600910Y-49427831D01*
X116852800Y-49478840D01*
X118452800Y-49478840D01*
X118688117Y-49434562D01*
X118904241Y-49295490D01*
X119049231Y-49083290D01*
X119100240Y-48831400D01*
X119100240Y-47231400D01*
X119055962Y-46996083D01*
X118916890Y-46779959D01*
X118704690Y-46634969D01*
X118549711Y-46603585D01*
X118695611Y-46506098D01*
X119006680Y-46040551D01*
X119115913Y-45491400D01*
X119006680Y-44942249D01*
X118695611Y-44476702D01*
X118230064Y-44165633D01*
X117680913Y-44056400D01*
X117624687Y-44056400D01*
X117075536Y-44165633D01*
X116609989Y-44476702D01*
X116298920Y-44942249D01*
X116189687Y-45491400D01*
X111495913Y-45491400D01*
X111386680Y-44942249D01*
X111075611Y-44476702D01*
X110610064Y-44165633D01*
X110060913Y-44056400D01*
X110004687Y-44056400D01*
X109455536Y-44165633D01*
X108989989Y-44476702D01*
X108678920Y-44942249D01*
X108569687Y-45491400D01*
X100050640Y-45491400D01*
X100050640Y-44926800D01*
X100006362Y-44691483D01*
X99867290Y-44475359D01*
X99655090Y-44330369D01*
X99403200Y-44279360D01*
X98203200Y-44279360D01*
X97967883Y-44323638D01*
X97751759Y-44462710D01*
X97606769Y-44674910D01*
X97555760Y-44926800D01*
X94100640Y-44926800D01*
X94056362Y-44691483D01*
X93917290Y-44475359D01*
X93705090Y-44330369D01*
X93453200Y-44279360D01*
X90653200Y-44279360D01*
X90417883Y-44323638D01*
X90201759Y-44462710D01*
X90056769Y-44674910D01*
X90005760Y-44926800D01*
X86550640Y-44926800D01*
X86506362Y-44691483D01*
X86367290Y-44475359D01*
X86155090Y-44330369D01*
X85903200Y-44279360D01*
X84703200Y-44279360D01*
X84467883Y-44323638D01*
X84251759Y-44462710D01*
X84250000Y-44465284D01*
X84250000Y-43406939D01*
X121895800Y-43382462D01*
X121895800Y-103099800D01*
X121895800Y-103099800D01*
G37*
X121895800Y-103099800D02*
X84250000Y-103099800D01*
X84250000Y-93268800D01*
X84638400Y-93268800D01*
X84638400Y-97891600D01*
X84713379Y-98268543D01*
X84926900Y-98588100D01*
X87873300Y-101534500D01*
X88192857Y-101748021D01*
X88569800Y-101823000D01*
X117246400Y-101823000D01*
X117623343Y-101748021D01*
X117942900Y-101534500D01*
X120076500Y-99400900D01*
X120290021Y-99081343D01*
X120365000Y-98704400D01*
X120365000Y-93112255D01*
X120394698Y-93092411D01*
X120705767Y-92626864D01*
X120815000Y-92077713D01*
X120815000Y-92021487D01*
X120705767Y-91472336D01*
X120394698Y-91006789D01*
X119929151Y-90695720D01*
X119380000Y-90586487D01*
X118830849Y-90695720D01*
X118365302Y-91006789D01*
X118054233Y-91472336D01*
X117945000Y-92021487D01*
X117945000Y-92077713D01*
X118054233Y-92626864D01*
X118365302Y-93092411D01*
X118395000Y-93112255D01*
X118395000Y-98296400D01*
X116838400Y-99853000D01*
X88977800Y-99853000D01*
X86608400Y-97483600D01*
X86608400Y-95314634D01*
X86613743Y-95314634D01*
X87014053Y-96283458D01*
X87754643Y-97025342D01*
X88722767Y-97427342D01*
X89771034Y-97428257D01*
X90739858Y-97027947D01*
X91481742Y-96287357D01*
X91883742Y-95319233D01*
X91884657Y-94270966D01*
X91484347Y-93302142D01*
X90743757Y-92560258D01*
X89775633Y-92158258D01*
X88727366Y-92157343D01*
X87758542Y-92557653D01*
X87016658Y-93298243D01*
X86614658Y-94266367D01*
X86613743Y-95314634D01*
X86608400Y-95314634D01*
X86608400Y-93676800D01*
X88986900Y-91298300D01*
X89200421Y-90978743D01*
X89275400Y-90601800D01*
X89275400Y-88821087D01*
X91122600Y-88821087D01*
X91122600Y-88877313D01*
X91231833Y-89426464D01*
X91542902Y-89892011D01*
X92008449Y-90203080D01*
X92557600Y-90312313D01*
X93106751Y-90203080D01*
X93572298Y-89892011D01*
X93827600Y-89509925D01*
X94082902Y-89892011D01*
X94548449Y-90203080D01*
X95097600Y-90312313D01*
X95646751Y-90203080D01*
X96112298Y-89892011D01*
X96367600Y-89509925D01*
X96622902Y-89892011D01*
X97088449Y-90203080D01*
X97637600Y-90312313D01*
X98186751Y-90203080D01*
X98652298Y-89892011D01*
X98907600Y-89509925D01*
X99162902Y-89892011D01*
X99628449Y-90203080D01*
X100177600Y-90312313D01*
X100726751Y-90203080D01*
X101192298Y-89892011D01*
X101447600Y-89509925D01*
X101702902Y-89892011D01*
X102168449Y-90203080D01*
X102717600Y-90312313D01*
X103082601Y-90239710D01*
X103082601Y-92069595D01*
X102778983Y-92373213D01*
X102563123Y-92156976D01*
X102035891Y-91938050D01*
X101465013Y-91937552D01*
X100937400Y-92155557D01*
X100533376Y-92558877D01*
X100364054Y-92966650D01*
X100196443Y-92561000D01*
X99793123Y-92156976D01*
X99265891Y-91938050D01*
X98695013Y-91937552D01*
X98167400Y-92155557D01*
X97763376Y-92558877D01*
X97594054Y-92966650D01*
X97426443Y-92561000D01*
X97023123Y-92156976D01*
X96495891Y-91938050D01*
X95925013Y-91937552D01*
X95397400Y-92155557D01*
X94993376Y-92558877D01*
X94774450Y-93086109D01*
X94773952Y-93656987D01*
X94991957Y-94184600D01*
X95395277Y-94588624D01*
X95922509Y-94807550D01*
X96493387Y-94808048D01*
X97021000Y-94590043D01*
X97425024Y-94186723D01*
X97594346Y-93778950D01*
X97761957Y-94184600D01*
X98165277Y-94588624D01*
X98692509Y-94807550D01*
X99263387Y-94808048D01*
X99791000Y-94590043D01*
X100195024Y-94186723D01*
X100364346Y-93778950D01*
X100531957Y-94184600D01*
X100935277Y-94588624D01*
X101462509Y-94807550D01*
X102033387Y-94808048D01*
X102374200Y-94667227D01*
X102374200Y-94974154D01*
X102322400Y-94995557D01*
X101918376Y-95398877D01*
X101749054Y-95806650D01*
X101581443Y-95401000D01*
X101178123Y-94996976D01*
X100650891Y-94778050D01*
X100080013Y-94777552D01*
X99552400Y-94995557D01*
X99148376Y-95398877D01*
X98979054Y-95806650D01*
X98811443Y-95401000D01*
X98408123Y-94996976D01*
X97880891Y-94778050D01*
X97310013Y-94777552D01*
X96782400Y-94995557D01*
X96378376Y-95398877D01*
X96159450Y-95926109D01*
X96158952Y-96496987D01*
X96376957Y-97024600D01*
X96780277Y-97428624D01*
X97307509Y-97647550D01*
X97878387Y-97648048D01*
X98406000Y-97430043D01*
X98810024Y-97026723D01*
X98979346Y-96618950D01*
X99146957Y-97024600D01*
X99550277Y-97428624D01*
X100077509Y-97647550D01*
X100648387Y-97648048D01*
X101176000Y-97430043D01*
X101580024Y-97026723D01*
X101749346Y-96618950D01*
X101916957Y-97024600D01*
X102320277Y-97428624D01*
X102847509Y-97647550D01*
X103418387Y-97648048D01*
X103946000Y-97430043D01*
X104350024Y-97026723D01*
X104519346Y-96618950D01*
X104686957Y-97024600D01*
X105090277Y-97428624D01*
X105617509Y-97647550D01*
X106188387Y-97648048D01*
X106716000Y-97430043D01*
X107120024Y-97026723D01*
X107338950Y-96499491D01*
X107339448Y-95928613D01*
X107121443Y-95401000D01*
X107035228Y-95314634D01*
X111613743Y-95314634D01*
X112014053Y-96283458D01*
X112754643Y-97025342D01*
X113722767Y-97427342D01*
X114771034Y-97428257D01*
X115739858Y-97027947D01*
X116481742Y-96287357D01*
X116883742Y-95319233D01*
X116884657Y-94270966D01*
X116484347Y-93302142D01*
X115743757Y-92560258D01*
X114775633Y-92158258D01*
X113727366Y-92157343D01*
X112758542Y-92557653D01*
X112016658Y-93298243D01*
X111614658Y-94266367D01*
X111613743Y-95314634D01*
X107035228Y-95314634D01*
X106718123Y-94996976D01*
X106190891Y-94778050D01*
X105620013Y-94777552D01*
X105092400Y-94995557D01*
X104688376Y-95398877D01*
X104519054Y-95806650D01*
X104351443Y-95401000D01*
X103948123Y-94996976D01*
X103894200Y-94974585D01*
X103894200Y-94667072D01*
X104232509Y-94807550D01*
X104803387Y-94808048D01*
X105331000Y-94590043D01*
X105735024Y-94186723D01*
X105841760Y-93929674D01*
X105841760Y-94172800D01*
X105886038Y-94408117D01*
X106025110Y-94624241D01*
X106237310Y-94769231D01*
X106489200Y-94820240D01*
X108089200Y-94820240D01*
X108324517Y-94775962D01*
X108540641Y-94636890D01*
X108685631Y-94424690D01*
X108736640Y-94172800D01*
X108736640Y-92572800D01*
X108692362Y-92337483D01*
X108553290Y-92121359D01*
X108341090Y-91976369D01*
X108089200Y-91925360D01*
X106489200Y-91925360D01*
X106253883Y-91969638D01*
X106037759Y-92108710D01*
X105892769Y-92320910D01*
X105841760Y-92572800D01*
X105841760Y-92815887D01*
X105736443Y-92561000D01*
X105333123Y-92156976D01*
X104805891Y-91938050D01*
X104602601Y-91937873D01*
X104602601Y-90132355D01*
X104708449Y-90203080D01*
X105257600Y-90312313D01*
X105806751Y-90203080D01*
X106272298Y-89892011D01*
X106527600Y-89509925D01*
X106782902Y-89892011D01*
X107248449Y-90203080D01*
X107797600Y-90312313D01*
X108346751Y-90203080D01*
X108812298Y-89892011D01*
X109067600Y-89509925D01*
X109322902Y-89892011D01*
X109788449Y-90203080D01*
X110337600Y-90312313D01*
X110886751Y-90203080D01*
X111352298Y-89892011D01*
X111607600Y-89509925D01*
X111862902Y-89892011D01*
X112328449Y-90203080D01*
X112877600Y-90312313D01*
X113426751Y-90203080D01*
X113892298Y-89892011D01*
X114147600Y-89509925D01*
X114402902Y-89892011D01*
X114868449Y-90203080D01*
X115417600Y-90312313D01*
X115966751Y-90203080D01*
X116432298Y-89892011D01*
X116743367Y-89426464D01*
X116852600Y-88877313D01*
X116852600Y-88821087D01*
X116743367Y-88271936D01*
X116432298Y-87806389D01*
X115966751Y-87495320D01*
X115417600Y-87386087D01*
X114868449Y-87495320D01*
X114402902Y-87806389D01*
X114147600Y-88188475D01*
X113892298Y-87806389D01*
X113426751Y-87495320D01*
X112877600Y-87386087D01*
X112328449Y-87495320D01*
X111862902Y-87806389D01*
X111607600Y-88188475D01*
X111352298Y-87806389D01*
X110886751Y-87495320D01*
X110337600Y-87386087D01*
X109788449Y-87495320D01*
X109322902Y-87806389D01*
X109067600Y-88188475D01*
X108812298Y-87806389D01*
X108346751Y-87495320D01*
X107797600Y-87386087D01*
X107248449Y-87495320D01*
X106782902Y-87806389D01*
X106527600Y-88188475D01*
X106272298Y-87806389D01*
X105806751Y-87495320D01*
X105257600Y-87386087D01*
X104708449Y-87495320D01*
X104602601Y-87566045D01*
X104602601Y-84090371D01*
X105795001Y-82897971D01*
X105959748Y-82651409D01*
X105998875Y-82454707D01*
X106272298Y-82272011D01*
X106527600Y-81889925D01*
X106782902Y-82272011D01*
X107248449Y-82583080D01*
X107797600Y-82692313D01*
X108346751Y-82583080D01*
X108812298Y-82272011D01*
X109067600Y-81889925D01*
X109322902Y-82272011D01*
X109788449Y-82583080D01*
X110337600Y-82692313D01*
X110886751Y-82583080D01*
X111352298Y-82272011D01*
X111607600Y-81889925D01*
X111862902Y-82272011D01*
X112328449Y-82583080D01*
X112877600Y-82692313D01*
X113426751Y-82583080D01*
X113892298Y-82272011D01*
X113988701Y-82127735D01*
X114014438Y-82264517D01*
X114153510Y-82480641D01*
X114365710Y-82625631D01*
X114617600Y-82676640D01*
X114786680Y-82676640D01*
X114880199Y-82816601D01*
X117030599Y-84967001D01*
X117277161Y-85131748D01*
X117568000Y-85189600D01*
X118141354Y-85189600D01*
X118162757Y-85241400D01*
X118566077Y-85645424D01*
X119093309Y-85864350D01*
X119664187Y-85864848D01*
X120191800Y-85646843D01*
X120595824Y-85243523D01*
X120814750Y-84716291D01*
X120815248Y-84145413D01*
X120597243Y-83617800D01*
X120193923Y-83213776D01*
X119666691Y-82994850D01*
X119095813Y-82994352D01*
X118568200Y-83212357D01*
X118164176Y-83615677D01*
X118141785Y-83669600D01*
X117882802Y-83669600D01*
X116684243Y-82471041D01*
X116814031Y-82281090D01*
X116865040Y-82029200D01*
X116865040Y-80429200D01*
X116820762Y-80193883D01*
X116681690Y-79977759D01*
X116469490Y-79832769D01*
X116217600Y-79781760D01*
X114617600Y-79781760D01*
X114382283Y-79826038D01*
X114166159Y-79965110D01*
X114021169Y-80177310D01*
X113989785Y-80332289D01*
X113892298Y-80186389D01*
X113426751Y-79875320D01*
X112877600Y-79766087D01*
X112328449Y-79875320D01*
X111862902Y-80186389D01*
X111607600Y-80568475D01*
X111352298Y-80186389D01*
X110886751Y-79875320D01*
X110337600Y-79766087D01*
X109788449Y-79875320D01*
X109322902Y-80186389D01*
X109067600Y-80568475D01*
X108812298Y-80186389D01*
X108346751Y-79875320D01*
X107797600Y-79766087D01*
X107248449Y-79875320D01*
X106782902Y-80186389D01*
X106527600Y-80568475D01*
X106272298Y-80186389D01*
X105806751Y-79875320D01*
X105257600Y-79766087D01*
X104708449Y-79875320D01*
X104242902Y-80186389D01*
X103987600Y-80568475D01*
X103732298Y-80186389D01*
X103266751Y-79875320D01*
X102717600Y-79766087D01*
X102168449Y-79875320D01*
X101702902Y-80186389D01*
X101447600Y-80568475D01*
X101192298Y-80186389D01*
X100726751Y-79875320D01*
X100177600Y-79766087D01*
X99628449Y-79875320D01*
X99162902Y-80186389D01*
X98907600Y-80568475D01*
X98652298Y-80186389D01*
X98186751Y-79875320D01*
X97637600Y-79766087D01*
X97088449Y-79875320D01*
X96622902Y-80186389D01*
X96367600Y-80568475D01*
X96112298Y-80186389D01*
X95646751Y-79875320D01*
X95097600Y-79766087D01*
X94548449Y-79875320D01*
X94082902Y-80186389D01*
X93812614Y-80590903D01*
X93709989Y-80374066D01*
X93295023Y-79998159D01*
X92906639Y-79837296D01*
X92684600Y-79959285D01*
X92684600Y-81102200D01*
X92704600Y-81102200D01*
X92704600Y-81356200D01*
X92684600Y-81356200D01*
X92684600Y-82499115D01*
X92906639Y-82621104D01*
X93295023Y-82460241D01*
X93709989Y-82084334D01*
X93812614Y-81867497D01*
X94082902Y-82272011D01*
X94548449Y-82583080D01*
X95097600Y-82692313D01*
X95646751Y-82583080D01*
X96112298Y-82272011D01*
X96367600Y-81889925D01*
X96622902Y-82272011D01*
X97088449Y-82583080D01*
X97637600Y-82692313D01*
X98186751Y-82583080D01*
X98652298Y-82272011D01*
X98907600Y-81889925D01*
X99162902Y-82272011D01*
X99628449Y-82583080D01*
X100177600Y-82692313D01*
X100726751Y-82583080D01*
X101192298Y-82272011D01*
X101447600Y-81889925D01*
X101702902Y-82272011D01*
X102168449Y-82583080D01*
X102717600Y-82692313D01*
X103266751Y-82583080D01*
X103732298Y-82272011D01*
X103987600Y-81889925D01*
X104242902Y-82272011D01*
X104259960Y-82283408D01*
X103305200Y-83238168D01*
X103140453Y-83484730D01*
X103082601Y-83775569D01*
X103082601Y-87458690D01*
X102717600Y-87386087D01*
X102168449Y-87495320D01*
X101702902Y-87806389D01*
X101447600Y-88188475D01*
X101192298Y-87806389D01*
X100726751Y-87495320D01*
X100177600Y-87386087D01*
X99628449Y-87495320D01*
X99162902Y-87806389D01*
X98907600Y-88188475D01*
X98652298Y-87806389D01*
X98186751Y-87495320D01*
X97637600Y-87386087D01*
X97088449Y-87495320D01*
X96622902Y-87806389D01*
X96367600Y-88188475D01*
X96112298Y-87806389D01*
X95646751Y-87495320D01*
X95097600Y-87386087D01*
X94548449Y-87495320D01*
X94082902Y-87806389D01*
X93827600Y-88188475D01*
X93572298Y-87806389D01*
X93106751Y-87495320D01*
X92557600Y-87386087D01*
X92008449Y-87495320D01*
X91542902Y-87806389D01*
X91231833Y-88271936D01*
X91122600Y-88821087D01*
X89275400Y-88821087D01*
X89275400Y-88721345D01*
X89506224Y-88490923D01*
X89725150Y-87963691D01*
X89725648Y-87392813D01*
X89507643Y-86865200D01*
X89104323Y-86461176D01*
X88577091Y-86242250D01*
X88006213Y-86241752D01*
X87478600Y-86459757D01*
X87074576Y-86863077D01*
X86855650Y-87390309D01*
X86855152Y-87961187D01*
X87073157Y-88488800D01*
X87305400Y-88721448D01*
X87305400Y-90193800D01*
X84926900Y-92572300D01*
X84713379Y-92891857D01*
X84638400Y-93268800D01*
X84250000Y-93268800D01*
X84250000Y-83684745D01*
X87462261Y-83684745D01*
X87536395Y-83930864D01*
X88073623Y-84123965D01*
X88643854Y-84096778D01*
X89044405Y-83930864D01*
X89118539Y-83684745D01*
X88290400Y-82856605D01*
X87462261Y-83684745D01*
X84250000Y-83684745D01*
X84250000Y-82460223D01*
X86843435Y-82460223D01*
X86870622Y-83030454D01*
X87036536Y-83431005D01*
X87282655Y-83505139D01*
X88110795Y-82677000D01*
X88470005Y-82677000D01*
X89298145Y-83505139D01*
X89544264Y-83431005D01*
X89737365Y-82893777D01*
X89710178Y-82323546D01*
X89544264Y-81922995D01*
X89298145Y-81848861D01*
X88470005Y-82677000D01*
X88110795Y-82677000D01*
X87282655Y-81848861D01*
X87036536Y-81922995D01*
X86843435Y-82460223D01*
X84250000Y-82460223D01*
X84250000Y-81669255D01*
X87462261Y-81669255D01*
X88290400Y-82497395D01*
X89118539Y-81669255D01*
X89091125Y-81578241D01*
X91165686Y-81578241D01*
X91405211Y-82084334D01*
X91820177Y-82460241D01*
X92208561Y-82621104D01*
X92430600Y-82499115D01*
X92430600Y-81356200D01*
X91286971Y-81356200D01*
X91165686Y-81578241D01*
X89091125Y-81578241D01*
X89044405Y-81423136D01*
X88507177Y-81230035D01*
X87936946Y-81257222D01*
X87536395Y-81423136D01*
X87462261Y-81669255D01*
X84250000Y-81669255D01*
X84250000Y-80880159D01*
X91165686Y-80880159D01*
X91286971Y-81102200D01*
X92430600Y-81102200D01*
X92430600Y-79959285D01*
X92208561Y-79837296D01*
X91820177Y-79998159D01*
X91405211Y-80374066D01*
X91165686Y-80880159D01*
X84250000Y-80880159D01*
X84250000Y-79432150D01*
X85714000Y-79432150D01*
X85714000Y-80172710D01*
X85810673Y-80406099D01*
X85989302Y-80584727D01*
X86222691Y-80681400D01*
X86963250Y-80681400D01*
X87122000Y-80522650D01*
X87122000Y-79273400D01*
X85872750Y-79273400D01*
X85714000Y-79432150D01*
X84250000Y-79432150D01*
X84250000Y-78120090D01*
X85714000Y-78120090D01*
X85714000Y-78860650D01*
X85872750Y-79019400D01*
X87122000Y-79019400D01*
X87122000Y-77770150D01*
X87376000Y-77770150D01*
X87376000Y-79019400D01*
X87396000Y-79019400D01*
X87396000Y-79273400D01*
X87376000Y-79273400D01*
X87376000Y-80522650D01*
X87534750Y-80681400D01*
X88275309Y-80681400D01*
X88508698Y-80584727D01*
X88687327Y-80406099D01*
X88743119Y-80271406D01*
X88918357Y-80446951D01*
X89482330Y-80681133D01*
X90092991Y-80681665D01*
X90657371Y-80448468D01*
X91089551Y-80017043D01*
X91323733Y-79453070D01*
X91324265Y-78842409D01*
X91091068Y-78278029D01*
X90659643Y-77845849D01*
X90095670Y-77611667D01*
X89485009Y-77611135D01*
X88920629Y-77844332D01*
X88743159Y-78021492D01*
X88687327Y-77886701D01*
X88508698Y-77708073D01*
X88275309Y-77611400D01*
X87534750Y-77611400D01*
X87376000Y-77770150D01*
X87122000Y-77770150D01*
X86963250Y-77611400D01*
X86222691Y-77611400D01*
X85989302Y-77708073D01*
X85810673Y-77886701D01*
X85714000Y-78120090D01*
X84250000Y-78120090D01*
X84250000Y-76230187D01*
X87413952Y-76230187D01*
X87631957Y-76757800D01*
X88035277Y-77161824D01*
X88562509Y-77380750D01*
X89133387Y-77381248D01*
X89661000Y-77163243D01*
X90065024Y-76759923D01*
X90283950Y-76232691D01*
X90284200Y-75946000D01*
X95006087Y-75946000D01*
X95115320Y-76495151D01*
X95426389Y-76960698D01*
X95891936Y-77271767D01*
X96441087Y-77381000D01*
X96497313Y-77381000D01*
X97046464Y-77271767D01*
X97107941Y-77230689D01*
X99585143Y-77230689D01*
X99810744Y-77776686D01*
X100228117Y-78194788D01*
X100773719Y-78421342D01*
X101364489Y-78421857D01*
X101910486Y-78196256D01*
X102126560Y-77980558D01*
X102706047Y-77980558D01*
X102786320Y-78231859D01*
X103341679Y-78433318D01*
X103931858Y-78406915D01*
X104354480Y-78231859D01*
X104434753Y-77980558D01*
X103570400Y-77116205D01*
X102706047Y-77980558D01*
X102126560Y-77980558D01*
X102328588Y-77778883D01*
X102343667Y-77742569D01*
X102526442Y-77800953D01*
X103390795Y-76936600D01*
X103750005Y-76936600D01*
X104614358Y-77800953D01*
X104796704Y-77742706D01*
X104810744Y-77776686D01*
X105228117Y-78194788D01*
X105773719Y-78421342D01*
X106364489Y-78421857D01*
X106910486Y-78196256D01*
X107328588Y-77778883D01*
X107555142Y-77233281D01*
X107555657Y-76642511D01*
X107330056Y-76096514D01*
X106912683Y-75678412D01*
X106367081Y-75451858D01*
X105776311Y-75451343D01*
X105230314Y-75676944D01*
X104812212Y-76094317D01*
X104797133Y-76130631D01*
X104614358Y-76072247D01*
X103750005Y-76936600D01*
X103390795Y-76936600D01*
X102526442Y-76072247D01*
X102344096Y-76130494D01*
X102330056Y-76096514D01*
X102126540Y-75892642D01*
X102706047Y-75892642D01*
X103570400Y-76756995D01*
X104434753Y-75892642D01*
X104354480Y-75641341D01*
X103799121Y-75439882D01*
X103208942Y-75466285D01*
X102786320Y-75641341D01*
X102706047Y-75892642D01*
X102126540Y-75892642D01*
X101912683Y-75678412D01*
X101367081Y-75451858D01*
X100776311Y-75451343D01*
X100230314Y-75676944D01*
X99812212Y-76094317D01*
X99585658Y-76639919D01*
X99585143Y-77230689D01*
X97107941Y-77230689D01*
X97512011Y-76960698D01*
X97823080Y-76495151D01*
X97932313Y-75946000D01*
X97823080Y-75396849D01*
X97512011Y-74931302D01*
X97369981Y-74836400D01*
X112695360Y-74836400D01*
X112695360Y-75836400D01*
X112739638Y-76071717D01*
X112878710Y-76287841D01*
X113090910Y-76432831D01*
X113342800Y-76483840D01*
X113977906Y-76483840D01*
X113977681Y-76741517D01*
X113618025Y-76741203D01*
X113200714Y-76913633D01*
X112881155Y-77232635D01*
X112707997Y-77649644D01*
X112707603Y-78101175D01*
X112880033Y-78518486D01*
X113199035Y-78838045D01*
X113616044Y-79011203D01*
X114067575Y-79011597D01*
X114484886Y-78839167D01*
X114804445Y-78520165D01*
X114977603Y-78103156D01*
X114977919Y-77741283D01*
X115337575Y-77741597D01*
X115754886Y-77569167D01*
X116074445Y-77250165D01*
X116247603Y-76833156D01*
X116247997Y-76381625D01*
X116130144Y-76096400D01*
X117530721Y-76096400D01*
X117653910Y-76287841D01*
X117866110Y-76432831D01*
X118118000Y-76483840D01*
X118753106Y-76483840D01*
X118752881Y-76741517D01*
X118393225Y-76741203D01*
X117975914Y-76913633D01*
X117656355Y-77232635D01*
X117483197Y-77649644D01*
X117482803Y-78101175D01*
X117655233Y-78518486D01*
X117974235Y-78838045D01*
X118391244Y-79011203D01*
X118842775Y-79011597D01*
X119260086Y-78839167D01*
X119579645Y-78520165D01*
X119752803Y-78103156D01*
X119753119Y-77741283D01*
X120112775Y-77741597D01*
X120530086Y-77569167D01*
X120849645Y-77250165D01*
X121022803Y-76833156D01*
X121023197Y-76381625D01*
X120850767Y-75964314D01*
X120648000Y-75761193D01*
X120648000Y-74803000D01*
X120590148Y-74512161D01*
X120425401Y-74265599D01*
X119065214Y-72905412D01*
X119249624Y-72721323D01*
X119468550Y-72194091D01*
X119469048Y-71623213D01*
X119251043Y-71095600D01*
X118847723Y-70691576D01*
X118320491Y-70472650D01*
X117749613Y-70472152D01*
X117222000Y-70690157D01*
X116817976Y-71093477D01*
X116599050Y-71620709D01*
X116598552Y-72191587D01*
X116816557Y-72719200D01*
X117219877Y-73123224D01*
X117316474Y-73163335D01*
X117331652Y-73239639D01*
X117496399Y-73486201D01*
X118199158Y-74188960D01*
X118118000Y-74188960D01*
X117882683Y-74233238D01*
X117666559Y-74372310D01*
X117527110Y-74576400D01*
X114930079Y-74576400D01*
X114806890Y-74384959D01*
X114594690Y-74239969D01*
X114342800Y-74188960D01*
X113342800Y-74188960D01*
X113107483Y-74233238D01*
X112891359Y-74372310D01*
X112746369Y-74584510D01*
X112695360Y-74836400D01*
X97369981Y-74836400D01*
X97046464Y-74620233D01*
X96497313Y-74511000D01*
X96441087Y-74511000D01*
X95891936Y-74620233D01*
X95426389Y-74931302D01*
X95115320Y-75396849D01*
X95006087Y-75946000D01*
X90284200Y-75946000D01*
X90284448Y-75661813D01*
X90066443Y-75134200D01*
X89663123Y-74730176D01*
X89135891Y-74511250D01*
X88565013Y-74510752D01*
X88037400Y-74728757D01*
X87633376Y-75132077D01*
X87414450Y-75659309D01*
X87413952Y-76230187D01*
X84250000Y-76230187D01*
X84250000Y-60883800D01*
X86725687Y-60883800D01*
X86834920Y-61432951D01*
X87145989Y-61898498D01*
X87203800Y-61937126D01*
X87203800Y-67538600D01*
X87278779Y-67915543D01*
X87492300Y-68235100D01*
X88940100Y-69682900D01*
X89259657Y-69896421D01*
X89636600Y-69971400D01*
X98321800Y-69971400D01*
X99395800Y-71045400D01*
X99395800Y-71708345D01*
X99366102Y-71728189D01*
X99110800Y-72110275D01*
X98855498Y-71728189D01*
X98389951Y-71417120D01*
X97840800Y-71307887D01*
X97291649Y-71417120D01*
X96826102Y-71728189D01*
X96570800Y-72110275D01*
X96315498Y-71728189D01*
X95849951Y-71417120D01*
X95300800Y-71307887D01*
X94751649Y-71417120D01*
X94286102Y-71728189D01*
X94030800Y-72110275D01*
X93775498Y-71728189D01*
X93309951Y-71417120D01*
X92760800Y-71307887D01*
X92211649Y-71417120D01*
X91746102Y-71728189D01*
X91490800Y-72110275D01*
X91235498Y-71728189D01*
X90769951Y-71417120D01*
X90220800Y-71307887D01*
X89671649Y-71417120D01*
X89206102Y-71728189D01*
X88895033Y-72193736D01*
X88785800Y-72742887D01*
X88785800Y-72799113D01*
X88895033Y-73348264D01*
X89206102Y-73813811D01*
X89671649Y-74124880D01*
X90220800Y-74234113D01*
X90769951Y-74124880D01*
X91235498Y-73813811D01*
X91490800Y-73431725D01*
X91746102Y-73813811D01*
X92211649Y-74124880D01*
X92760800Y-74234113D01*
X93309951Y-74124880D01*
X93775498Y-73813811D01*
X94030800Y-73431725D01*
X94286102Y-73813811D01*
X94751649Y-74124880D01*
X95300800Y-74234113D01*
X95849951Y-74124880D01*
X96315498Y-73813811D01*
X96570800Y-73431725D01*
X96826102Y-73813811D01*
X97291649Y-74124880D01*
X97840800Y-74234113D01*
X98389951Y-74124880D01*
X98855498Y-73813811D01*
X99110800Y-73431725D01*
X99366102Y-73813811D01*
X99831649Y-74124880D01*
X100380800Y-74234113D01*
X100929951Y-74124880D01*
X101395498Y-73813811D01*
X101650800Y-73431725D01*
X101906102Y-73813811D01*
X102371649Y-74124880D01*
X102920800Y-74234113D01*
X103469951Y-74124880D01*
X103935498Y-73813811D01*
X104190800Y-73431725D01*
X104446102Y-73813811D01*
X104911649Y-74124880D01*
X105460800Y-74234113D01*
X106009951Y-74124880D01*
X106475498Y-73813811D01*
X106730800Y-73431725D01*
X106986102Y-73813811D01*
X107451649Y-74124880D01*
X108000800Y-74234113D01*
X108549951Y-74124880D01*
X109015498Y-73813811D01*
X109270800Y-73431725D01*
X109526102Y-73813811D01*
X109991649Y-74124880D01*
X110540800Y-74234113D01*
X111089951Y-74124880D01*
X111555498Y-73813811D01*
X111866567Y-73348264D01*
X111975800Y-72799113D01*
X111975800Y-72742887D01*
X111866567Y-72193736D01*
X111865132Y-72191587D01*
X112813952Y-72191587D01*
X113031957Y-72719200D01*
X113435277Y-73123224D01*
X113962509Y-73342150D01*
X114533387Y-73342648D01*
X115061000Y-73124643D01*
X115465024Y-72721323D01*
X115683950Y-72194091D01*
X115684448Y-71623213D01*
X115466443Y-71095600D01*
X115063123Y-70691576D01*
X114535891Y-70472650D01*
X113965013Y-70472152D01*
X113437400Y-70690157D01*
X113033376Y-71093477D01*
X112814450Y-71620709D01*
X112813952Y-72191587D01*
X111865132Y-72191587D01*
X111555498Y-71728189D01*
X111089951Y-71417120D01*
X110540800Y-71307887D01*
X109991649Y-71417120D01*
X109526102Y-71728189D01*
X109270800Y-72110275D01*
X109015498Y-71728189D01*
X108756397Y-71555063D01*
X108702948Y-71286361D01*
X108538201Y-71039799D01*
X107369801Y-69871399D01*
X107123239Y-69706652D01*
X106832400Y-69648800D01*
X105166002Y-69648800D01*
X102410800Y-66893598D01*
X102410800Y-66512668D01*
X102920800Y-66614113D01*
X103469951Y-66504880D01*
X103935498Y-66193811D01*
X104190800Y-65811725D01*
X104446102Y-66193811D01*
X104911649Y-66504880D01*
X105460800Y-66614113D01*
X106009951Y-66504880D01*
X106475498Y-66193811D01*
X106730800Y-65811725D01*
X106986102Y-66193811D01*
X107451649Y-66504880D01*
X108000800Y-66614113D01*
X108549951Y-66504880D01*
X109015498Y-66193811D01*
X109111901Y-66049535D01*
X109137638Y-66186317D01*
X109276710Y-66402441D01*
X109488910Y-66547431D01*
X109740800Y-66598440D01*
X111340800Y-66598440D01*
X111576117Y-66554162D01*
X111792241Y-66415090D01*
X111937231Y-66202890D01*
X111988240Y-65951000D01*
X111988240Y-64351000D01*
X111970983Y-64259287D01*
X112814200Y-64259287D01*
X112814200Y-64315513D01*
X112923433Y-64864664D01*
X113234502Y-65330211D01*
X113700049Y-65641280D01*
X114249200Y-65750513D01*
X114798351Y-65641280D01*
X115263898Y-65330211D01*
X115574967Y-64864664D01*
X115684200Y-64315513D01*
X115684200Y-64259287D01*
X116598800Y-64259287D01*
X116598800Y-64315513D01*
X116708033Y-64864664D01*
X117019102Y-65330211D01*
X117484649Y-65641280D01*
X118033800Y-65750513D01*
X118582951Y-65641280D01*
X119048498Y-65330211D01*
X119359567Y-64864664D01*
X119468800Y-64315513D01*
X119468800Y-64259287D01*
X119359567Y-63710136D01*
X119048498Y-63244589D01*
X118582951Y-62933520D01*
X118033800Y-62824287D01*
X117484649Y-62933520D01*
X117019102Y-63244589D01*
X116708033Y-63710136D01*
X116598800Y-64259287D01*
X115684200Y-64259287D01*
X115574967Y-63710136D01*
X115263898Y-63244589D01*
X114798351Y-62933520D01*
X114249200Y-62824287D01*
X113700049Y-62933520D01*
X113234502Y-63244589D01*
X112923433Y-63710136D01*
X112814200Y-64259287D01*
X111970983Y-64259287D01*
X111943962Y-64115683D01*
X111804890Y-63899559D01*
X111592690Y-63754569D01*
X111340800Y-63703560D01*
X109740800Y-63703560D01*
X109505483Y-63747838D01*
X109289359Y-63886910D01*
X109144369Y-64099110D01*
X109112985Y-64254089D01*
X109015498Y-64108189D01*
X108549951Y-63797120D01*
X108000800Y-63687887D01*
X107451649Y-63797120D01*
X106986102Y-64108189D01*
X106730800Y-64490275D01*
X106475498Y-64108189D01*
X106009951Y-63797120D01*
X105460800Y-63687887D01*
X104911649Y-63797120D01*
X104446102Y-64108189D01*
X104190800Y-64490275D01*
X103935498Y-64108189D01*
X103469951Y-63797120D01*
X102920800Y-63687887D01*
X102371649Y-63797120D01*
X102348723Y-63812438D01*
X102188201Y-63572199D01*
X100537108Y-61921106D01*
X100576709Y-61937550D01*
X101147587Y-61938048D01*
X101675200Y-61720043D01*
X102079224Y-61316723D01*
X102298150Y-60789491D01*
X102298152Y-60786987D01*
X102704752Y-60786987D01*
X102922757Y-61314600D01*
X103326077Y-61718624D01*
X103853309Y-61937550D01*
X104424187Y-61938048D01*
X104951800Y-61720043D01*
X105355824Y-61316723D01*
X105574750Y-60789491D01*
X105575248Y-60218613D01*
X105357243Y-59691000D01*
X104953923Y-59286976D01*
X104426691Y-59068050D01*
X103855813Y-59067552D01*
X103328200Y-59285557D01*
X102924176Y-59688877D01*
X102705250Y-60216109D01*
X102704752Y-60786987D01*
X102298152Y-60786987D01*
X102298648Y-60218613D01*
X102080643Y-59691000D01*
X101677323Y-59286976D01*
X101150091Y-59068050D01*
X100579213Y-59067552D01*
X100051600Y-59285557D01*
X99647576Y-59688877D01*
X99428650Y-60216109D01*
X99428152Y-60786987D01*
X99445870Y-60829868D01*
X98962401Y-60346399D01*
X98715839Y-60181652D01*
X98425000Y-60123800D01*
X97047446Y-60123800D01*
X97026043Y-60072000D01*
X96622723Y-59667976D01*
X96095491Y-59449050D01*
X95524613Y-59448552D01*
X94997000Y-59666557D01*
X94592976Y-60069877D01*
X94374050Y-60597109D01*
X94373552Y-61167987D01*
X94591557Y-61695600D01*
X94994877Y-62099624D01*
X95522109Y-62318550D01*
X96092987Y-62319048D01*
X96620600Y-62101043D01*
X97024624Y-61697723D01*
X97047015Y-61643800D01*
X98110198Y-61643800D01*
X100253798Y-63787400D01*
X100253798Y-63881084D01*
X100031761Y-63759096D01*
X99643377Y-63919959D01*
X99228411Y-64295866D01*
X99125786Y-64512703D01*
X98855498Y-64108189D01*
X98389951Y-63797120D01*
X97840800Y-63687887D01*
X97291649Y-63797120D01*
X96826102Y-64108189D01*
X96570800Y-64490275D01*
X96315498Y-64108189D01*
X95849951Y-63797120D01*
X95300800Y-63687887D01*
X94751649Y-63797120D01*
X94286102Y-64108189D01*
X94030800Y-64490275D01*
X93775498Y-64108189D01*
X93309951Y-63797120D01*
X92760800Y-63687887D01*
X92211649Y-63797120D01*
X91746102Y-64108189D01*
X91490800Y-64490275D01*
X91235498Y-64108189D01*
X90769951Y-63797120D01*
X90220800Y-63687887D01*
X89671649Y-63797120D01*
X89206102Y-64108189D01*
X89173800Y-64156532D01*
X89173800Y-61937126D01*
X89231611Y-61898498D01*
X89542680Y-61432951D01*
X89651913Y-60883800D01*
X89542680Y-60334649D01*
X89231611Y-59869102D01*
X88766064Y-59558033D01*
X88216913Y-59448800D01*
X88160687Y-59448800D01*
X87611536Y-59558033D01*
X87145989Y-59869102D01*
X86834920Y-60334649D01*
X86725687Y-60883800D01*
X84250000Y-60883800D01*
X84250000Y-57607200D01*
X86725687Y-57607200D01*
X86834920Y-58156351D01*
X87145989Y-58621898D01*
X87611536Y-58932967D01*
X88160687Y-59042200D01*
X88216913Y-59042200D01*
X88766064Y-58932967D01*
X89231611Y-58621898D01*
X89542680Y-58156351D01*
X89651913Y-57607200D01*
X89640280Y-57548720D01*
X90857400Y-56331600D01*
X95138235Y-56331600D01*
X94997000Y-56389957D01*
X94592976Y-56793277D01*
X94374050Y-57320509D01*
X94373552Y-57891387D01*
X94591557Y-58419000D01*
X94994877Y-58823024D01*
X95522109Y-59041950D01*
X96092987Y-59042448D01*
X96620600Y-58824443D01*
X97024624Y-58421123D01*
X97243550Y-57893891D01*
X97244048Y-57323013D01*
X97026043Y-56795400D01*
X96622723Y-56391376D01*
X96478767Y-56331600D01*
X97268230Y-56331600D01*
X97645173Y-56256621D01*
X97964730Y-56043100D01*
X98049030Y-55958800D01*
X105927960Y-55958800D01*
X105927960Y-59458800D01*
X105972238Y-59694117D01*
X106111310Y-59910241D01*
X106323510Y-60055231D01*
X106575400Y-60106240D01*
X110075400Y-60106240D01*
X110310717Y-60061962D01*
X110526841Y-59922890D01*
X110671831Y-59710690D01*
X110722840Y-59458800D01*
X110722840Y-57994550D01*
X111940400Y-57994550D01*
X111940400Y-59585110D01*
X112037073Y-59818499D01*
X112215702Y-59997127D01*
X112449091Y-60093800D01*
X114039650Y-60093800D01*
X114198400Y-59935050D01*
X114198400Y-57835800D01*
X114452400Y-57835800D01*
X114452400Y-59935050D01*
X114611150Y-60093800D01*
X116201709Y-60093800D01*
X116435098Y-59997127D01*
X116613727Y-59818499D01*
X116710400Y-59585110D01*
X116710400Y-57994550D01*
X116551650Y-57835800D01*
X114452400Y-57835800D01*
X114198400Y-57835800D01*
X112099150Y-57835800D01*
X111940400Y-57994550D01*
X110722840Y-57994550D01*
X110722840Y-55958800D01*
X110678562Y-55723483D01*
X110539490Y-55507359D01*
X110391497Y-55406240D01*
X112250063Y-55406240D01*
X112215702Y-55420473D01*
X112037073Y-55599101D01*
X111940400Y-55832490D01*
X111940400Y-57423050D01*
X112099150Y-57581800D01*
X114198400Y-57581800D01*
X114198400Y-55482550D01*
X114452400Y-55482550D01*
X114452400Y-57581800D01*
X116551650Y-57581800D01*
X116710400Y-57423050D01*
X116710400Y-55832490D01*
X116613727Y-55599101D01*
X116435098Y-55420473D01*
X116201709Y-55323800D01*
X114611150Y-55323800D01*
X114452400Y-55482550D01*
X114198400Y-55482550D01*
X114039650Y-55323800D01*
X113370022Y-55323800D01*
X113526841Y-55222890D01*
X113671831Y-55010690D01*
X113722840Y-54758800D01*
X113722840Y-51258800D01*
X113678562Y-51023483D01*
X113539490Y-50807359D01*
X113327290Y-50662369D01*
X113075400Y-50611360D01*
X109575400Y-50611360D01*
X109340083Y-50655638D01*
X109123959Y-50794710D01*
X108978969Y-51006910D01*
X108927960Y-51258800D01*
X108927960Y-54758800D01*
X108972238Y-54994117D01*
X109111310Y-55210241D01*
X109259303Y-55311360D01*
X106575400Y-55311360D01*
X106340083Y-55355638D01*
X106123959Y-55494710D01*
X105978969Y-55706910D01*
X105927960Y-55958800D01*
X98049030Y-55958800D01*
X99988685Y-54019145D01*
X100314249Y-54236680D01*
X100863400Y-54345913D01*
X101412551Y-54236680D01*
X101878098Y-53925611D01*
X102189167Y-53460064D01*
X102298400Y-52910913D01*
X102298400Y-52854687D01*
X102705000Y-52854687D01*
X102705000Y-52910913D01*
X102814233Y-53460064D01*
X103125302Y-53925611D01*
X103590849Y-54236680D01*
X104140000Y-54345913D01*
X104689151Y-54236680D01*
X105154698Y-53925611D01*
X105465767Y-53460064D01*
X105575000Y-52910913D01*
X105575000Y-52854687D01*
X105465767Y-52305536D01*
X105154698Y-51839989D01*
X104689151Y-51528920D01*
X104140000Y-51419687D01*
X103590849Y-51528920D01*
X103125302Y-51839989D01*
X102814233Y-52305536D01*
X102705000Y-52854687D01*
X102298400Y-52854687D01*
X102189167Y-52305536D01*
X101878098Y-51839989D01*
X101412551Y-51528920D01*
X100863400Y-51419687D01*
X100314249Y-51528920D01*
X99848702Y-51839989D01*
X99810074Y-51897800D01*
X99732030Y-51897800D01*
X99355087Y-51972779D01*
X99035530Y-52186300D01*
X96860230Y-54361600D01*
X90449400Y-54361600D01*
X90072457Y-54436579D01*
X89752900Y-54650100D01*
X88228496Y-56174504D01*
X88216913Y-56172200D01*
X88160687Y-56172200D01*
X87611536Y-56281433D01*
X87145989Y-56592502D01*
X86834920Y-57058049D01*
X86725687Y-57607200D01*
X84250000Y-57607200D01*
X84250000Y-52103461D01*
X87255958Y-52103461D01*
X87468190Y-52617103D01*
X87860830Y-53010429D01*
X88374100Y-53223557D01*
X88929861Y-53224042D01*
X89443503Y-53011810D01*
X89836829Y-52619170D01*
X90049957Y-52105900D01*
X90050442Y-51550139D01*
X89838210Y-51036497D01*
X89445570Y-50643171D01*
X89301697Y-50583430D01*
X89384343Y-50549197D01*
X89453808Y-50307013D01*
X88653200Y-49506405D01*
X87852592Y-50307013D01*
X87922057Y-50549197D01*
X88010567Y-50580774D01*
X87862897Y-50641790D01*
X87469571Y-51034430D01*
X87256443Y-51547700D01*
X87255958Y-52103461D01*
X84250000Y-52103461D01*
X84250000Y-49119102D01*
X87244056Y-49119102D01*
X87271838Y-49674168D01*
X87430803Y-50057943D01*
X87672987Y-50127408D01*
X88473595Y-49326800D01*
X88832805Y-49326800D01*
X89529521Y-50023516D01*
X89568190Y-50117103D01*
X89960830Y-50510429D01*
X90474100Y-50723557D01*
X91029861Y-50724042D01*
X91543503Y-50511810D01*
X91936829Y-50119170D01*
X92053223Y-49838861D01*
X92168190Y-50117103D01*
X92560830Y-50510429D01*
X93074100Y-50723557D01*
X93629861Y-50724042D01*
X94143503Y-50511810D01*
X94403309Y-50252458D01*
X94660830Y-50510429D01*
X94820428Y-50576700D01*
X94662897Y-50641790D01*
X94269571Y-51034430D01*
X94056443Y-51547700D01*
X94055958Y-52103461D01*
X94268190Y-52617103D01*
X94660830Y-53010429D01*
X95174100Y-53223557D01*
X95729861Y-53224042D01*
X96243503Y-53011810D01*
X96636829Y-52619170D01*
X96849957Y-52105900D01*
X96850442Y-51550139D01*
X96638210Y-51036497D01*
X96245570Y-50643171D01*
X96085972Y-50576900D01*
X96243503Y-50511810D01*
X96636829Y-50119170D01*
X96849957Y-49605900D01*
X96850442Y-49050139D01*
X96638210Y-48536497D01*
X96245570Y-48143171D01*
X95732300Y-47930043D01*
X95176539Y-47929558D01*
X94662897Y-48141790D01*
X94403091Y-48401142D01*
X94145570Y-48143171D01*
X93632300Y-47930043D01*
X93076539Y-47929558D01*
X92562897Y-48141790D01*
X92169571Y-48534430D01*
X92053177Y-48814739D01*
X91938210Y-48536497D01*
X91545570Y-48143171D01*
X91032300Y-47930043D01*
X90476539Y-47929558D01*
X89962897Y-48141790D01*
X89569571Y-48534430D01*
X89530087Y-48629518D01*
X88832805Y-49326800D01*
X88473595Y-49326800D01*
X87672987Y-48526192D01*
X87430803Y-48595657D01*
X87244056Y-49119102D01*
X84250000Y-49119102D01*
X84250000Y-48185682D01*
X84451310Y-48323231D01*
X84703200Y-48374240D01*
X85903200Y-48374240D01*
X86050162Y-48346587D01*
X87852592Y-48346587D01*
X88653200Y-49147195D01*
X89453808Y-48346587D01*
X89384343Y-48104403D01*
X88860898Y-47917656D01*
X88305832Y-47945438D01*
X87922057Y-48104403D01*
X87852592Y-48346587D01*
X86050162Y-48346587D01*
X86138517Y-48329962D01*
X86354641Y-48190890D01*
X86499631Y-47978690D01*
X86550640Y-47726800D01*
X86550640Y-44926800D01*
X90005760Y-44926800D01*
X90005760Y-46126800D01*
X90050038Y-46362117D01*
X90189110Y-46578241D01*
X90401310Y-46723231D01*
X90653200Y-46774240D01*
X93453200Y-46774240D01*
X93688517Y-46729962D01*
X93904641Y-46590890D01*
X94049631Y-46378690D01*
X94100640Y-46126800D01*
X94100640Y-44926800D01*
X97555760Y-44926800D01*
X97555760Y-47726800D01*
X97600038Y-47962117D01*
X97739110Y-48178241D01*
X97951310Y-48323231D01*
X98203200Y-48374240D01*
X99403200Y-48374240D01*
X99638517Y-48329962D01*
X99854641Y-48190890D01*
X99999631Y-47978690D01*
X100050640Y-47726800D01*
X100050640Y-46367800D01*
X101233960Y-46367800D01*
X101233960Y-47967800D01*
X101278238Y-48203117D01*
X101417310Y-48419241D01*
X101629510Y-48564231D01*
X101881400Y-48615240D01*
X103481400Y-48615240D01*
X103716717Y-48570962D01*
X103932841Y-48431890D01*
X104077831Y-48219690D01*
X104086770Y-48175545D01*
X104353261Y-48175545D01*
X104427395Y-48421664D01*
X104964623Y-48614765D01*
X105534854Y-48587578D01*
X105935405Y-48421664D01*
X105947822Y-48380439D01*
X108640896Y-48380439D01*
X108801759Y-48768823D01*
X109177666Y-49183789D01*
X109683759Y-49423314D01*
X109905800Y-49302029D01*
X109905800Y-48158400D01*
X110159800Y-48158400D01*
X110159800Y-49302029D01*
X110381841Y-49423314D01*
X110887934Y-49183789D01*
X111263841Y-48768823D01*
X111424704Y-48380439D01*
X111302715Y-48158400D01*
X110159800Y-48158400D01*
X109905800Y-48158400D01*
X108762885Y-48158400D01*
X108640896Y-48380439D01*
X105947822Y-48380439D01*
X106009539Y-48175545D01*
X105181400Y-47347405D01*
X104353261Y-48175545D01*
X104086770Y-48175545D01*
X104126046Y-47981599D01*
X104173655Y-47995939D01*
X105001795Y-47167800D01*
X105361005Y-47167800D01*
X106189145Y-47995939D01*
X106435264Y-47921805D01*
X106628365Y-47384577D01*
X106601178Y-46814346D01*
X106435264Y-46413795D01*
X106189145Y-46339661D01*
X105361005Y-47167800D01*
X105001795Y-47167800D01*
X104173655Y-46339661D01*
X104126233Y-46353945D01*
X104089751Y-46160055D01*
X104353261Y-46160055D01*
X105181400Y-46988195D01*
X106009539Y-46160055D01*
X105935405Y-45913936D01*
X105398177Y-45720835D01*
X104827946Y-45748022D01*
X104427395Y-45913936D01*
X104353261Y-46160055D01*
X104089751Y-46160055D01*
X104084562Y-46132483D01*
X103945490Y-45916359D01*
X103733290Y-45771369D01*
X103481400Y-45720360D01*
X101881400Y-45720360D01*
X101646083Y-45764638D01*
X101429959Y-45903710D01*
X101284969Y-46115910D01*
X101233960Y-46367800D01*
X100050640Y-46367800D01*
X100050640Y-45491400D01*
X108569687Y-45491400D01*
X108678920Y-46040551D01*
X108989989Y-46506098D01*
X109394503Y-46776386D01*
X109177666Y-46879011D01*
X108801759Y-47293977D01*
X108640896Y-47682361D01*
X108762885Y-47904400D01*
X109905800Y-47904400D01*
X109905800Y-47884400D01*
X110159800Y-47884400D01*
X110159800Y-47904400D01*
X111302715Y-47904400D01*
X111424704Y-47682361D01*
X111263841Y-47293977D01*
X110887934Y-46879011D01*
X110671097Y-46776386D01*
X111075611Y-46506098D01*
X111386680Y-46040551D01*
X111495913Y-45491400D01*
X116189687Y-45491400D01*
X116298920Y-46040551D01*
X116609989Y-46506098D01*
X116754265Y-46602501D01*
X116617483Y-46628238D01*
X116401359Y-46767310D01*
X116256369Y-46979510D01*
X116205360Y-47231400D01*
X116205360Y-48831400D01*
X116249638Y-49066717D01*
X116388710Y-49282841D01*
X116600910Y-49427831D01*
X116852800Y-49478840D01*
X118452800Y-49478840D01*
X118688117Y-49434562D01*
X118904241Y-49295490D01*
X119049231Y-49083290D01*
X119100240Y-48831400D01*
X119100240Y-47231400D01*
X119055962Y-46996083D01*
X118916890Y-46779959D01*
X118704690Y-46634969D01*
X118549711Y-46603585D01*
X118695611Y-46506098D01*
X119006680Y-46040551D01*
X119115913Y-45491400D01*
X119006680Y-44942249D01*
X118695611Y-44476702D01*
X118230064Y-44165633D01*
X117680913Y-44056400D01*
X117624687Y-44056400D01*
X117075536Y-44165633D01*
X116609989Y-44476702D01*
X116298920Y-44942249D01*
X116189687Y-45491400D01*
X111495913Y-45491400D01*
X111386680Y-44942249D01*
X111075611Y-44476702D01*
X110610064Y-44165633D01*
X110060913Y-44056400D01*
X110004687Y-44056400D01*
X109455536Y-44165633D01*
X108989989Y-44476702D01*
X108678920Y-44942249D01*
X108569687Y-45491400D01*
X100050640Y-45491400D01*
X100050640Y-44926800D01*
X100006362Y-44691483D01*
X99867290Y-44475359D01*
X99655090Y-44330369D01*
X99403200Y-44279360D01*
X98203200Y-44279360D01*
X97967883Y-44323638D01*
X97751759Y-44462710D01*
X97606769Y-44674910D01*
X97555760Y-44926800D01*
X94100640Y-44926800D01*
X94056362Y-44691483D01*
X93917290Y-44475359D01*
X93705090Y-44330369D01*
X93453200Y-44279360D01*
X90653200Y-44279360D01*
X90417883Y-44323638D01*
X90201759Y-44462710D01*
X90056769Y-44674910D01*
X90005760Y-44926800D01*
X86550640Y-44926800D01*
X86506362Y-44691483D01*
X86367290Y-44475359D01*
X86155090Y-44330369D01*
X85903200Y-44279360D01*
X84703200Y-44279360D01*
X84467883Y-44323638D01*
X84251759Y-44462710D01*
X84250000Y-44465284D01*
X84250000Y-43406939D01*
X121895800Y-43382462D01*
X121895800Y-103099800D01*
G36*
X100507800Y-65024000D02*
X100527800Y-65024000D01*
X100527800Y-65278000D01*
X100507800Y-65278000D01*
X100507800Y-66420915D01*
X100729839Y-66542904D01*
X100890800Y-66476236D01*
X100890800Y-67208400D01*
X100948652Y-67499239D01*
X101113399Y-67745801D01*
X104313799Y-70946201D01*
X104560361Y-71110948D01*
X104851200Y-71168800D01*
X106517598Y-71168800D01*
X107040584Y-71691786D01*
X106986102Y-71728189D01*
X106730800Y-72110275D01*
X106475498Y-71728189D01*
X106009951Y-71417120D01*
X105460800Y-71307887D01*
X104911649Y-71417120D01*
X104446102Y-71728189D01*
X104190800Y-72110275D01*
X103935498Y-71728189D01*
X103469951Y-71417120D01*
X102920800Y-71307887D01*
X102371649Y-71417120D01*
X101906102Y-71728189D01*
X101650800Y-72110275D01*
X101395498Y-71728189D01*
X101365800Y-71708345D01*
X101365800Y-70637400D01*
X101290821Y-70260457D01*
X101077300Y-69940900D01*
X99426300Y-68289900D01*
X99106743Y-68076379D01*
X98729800Y-68001400D01*
X90044600Y-68001400D01*
X89173800Y-67130600D01*
X89173800Y-66145468D01*
X89206102Y-66193811D01*
X89671649Y-66504880D01*
X90220800Y-66614113D01*
X90769951Y-66504880D01*
X91235498Y-66193811D01*
X91490800Y-65811725D01*
X91746102Y-66193811D01*
X92211649Y-66504880D01*
X92760800Y-66614113D01*
X93309951Y-66504880D01*
X93775498Y-66193811D01*
X94030800Y-65811725D01*
X94286102Y-66193811D01*
X94751649Y-66504880D01*
X95300800Y-66614113D01*
X95849951Y-66504880D01*
X96315498Y-66193811D01*
X96570800Y-65811725D01*
X96826102Y-66193811D01*
X97291649Y-66504880D01*
X97840800Y-66614113D01*
X98389951Y-66504880D01*
X98855498Y-66193811D01*
X99125786Y-65789297D01*
X99228411Y-66006134D01*
X99643377Y-66382041D01*
X100031761Y-66542904D01*
X100253800Y-66420915D01*
X100253800Y-65278000D01*
X100233800Y-65278000D01*
X100233800Y-65024000D01*
X100253800Y-65024000D01*
X100253800Y-65004000D01*
X100507800Y-65004000D01*
X100507800Y-65024000D01*
X100507800Y-65024000D01*
G37*
X100507800Y-65024000D02*
X100527800Y-65024000D01*
X100527800Y-65278000D01*
X100507800Y-65278000D01*
X100507800Y-66420915D01*
X100729839Y-66542904D01*
X100890800Y-66476236D01*
X100890800Y-67208400D01*
X100948652Y-67499239D01*
X101113399Y-67745801D01*
X104313799Y-70946201D01*
X104560361Y-71110948D01*
X104851200Y-71168800D01*
X106517598Y-71168800D01*
X107040584Y-71691786D01*
X106986102Y-71728189D01*
X106730800Y-72110275D01*
X106475498Y-71728189D01*
X106009951Y-71417120D01*
X105460800Y-71307887D01*
X104911649Y-71417120D01*
X104446102Y-71728189D01*
X104190800Y-72110275D01*
X103935498Y-71728189D01*
X103469951Y-71417120D01*
X102920800Y-71307887D01*
X102371649Y-71417120D01*
X101906102Y-71728189D01*
X101650800Y-72110275D01*
X101395498Y-71728189D01*
X101365800Y-71708345D01*
X101365800Y-70637400D01*
X101290821Y-70260457D01*
X101077300Y-69940900D01*
X99426300Y-68289900D01*
X99106743Y-68076379D01*
X98729800Y-68001400D01*
X90044600Y-68001400D01*
X89173800Y-67130600D01*
X89173800Y-66145468D01*
X89206102Y-66193811D01*
X89671649Y-66504880D01*
X90220800Y-66614113D01*
X90769951Y-66504880D01*
X91235498Y-66193811D01*
X91490800Y-65811725D01*
X91746102Y-66193811D01*
X92211649Y-66504880D01*
X92760800Y-66614113D01*
X93309951Y-66504880D01*
X93775498Y-66193811D01*
X94030800Y-65811725D01*
X94286102Y-66193811D01*
X94751649Y-66504880D01*
X95300800Y-66614113D01*
X95849951Y-66504880D01*
X96315498Y-66193811D01*
X96570800Y-65811725D01*
X96826102Y-66193811D01*
X97291649Y-66504880D01*
X97840800Y-66614113D01*
X98389951Y-66504880D01*
X98855498Y-66193811D01*
X99125786Y-65789297D01*
X99228411Y-66006134D01*
X99643377Y-66382041D01*
X100031761Y-66542904D01*
X100253800Y-66420915D01*
X100253800Y-65278000D01*
X100233800Y-65278000D01*
X100233800Y-65024000D01*
X100253800Y-65024000D01*
X100253800Y-65004000D01*
X100507800Y-65004000D01*
X100507800Y-65024000D01*
M02*
