M48
;DRILL file {KiCad 4.0.7} date 07/15/18 04:01:20
;FORMAT={-:-/ absolute / inch / decimal}
FMAT,2
INCH,TZ
T1C0.024
T2C0.031
T3C0.035
T4C0.039
T5C0.040
T6C0.126
%
G90
G05
M72
T1
X4.482Y-2.966
X4.482Y-3.066
X4.532Y-3.016
X4.67Y-2.966
X4.67Y-3.066
X4.72Y-3.016
T2
X3.472Y-2.268
X3.472Y-2.397
X3.476Y-3.255
X3.476Y-3.4519
X3.498Y-2.99
X3.552Y-2.565
X3.552Y-2.865
X3.644Y-3.198
X3.644Y-3.498
X3.652Y-2.565
X3.652Y-2.865
X3.744Y-3.198
X3.744Y-3.498
X3.752Y-2.565
X3.752Y-2.865
X3.772Y-2.268
X3.772Y-2.397
X3.798Y-2.99
X3.844Y-3.198
X3.844Y-3.498
X3.852Y-2.565
X3.852Y-2.865
X3.944Y-3.198
X3.944Y-3.498
X3.952Y-2.565
X3.952Y-2.865
X3.971Y-2.082
X3.971Y-2.382
X4.0426Y-1.857
X4.044Y-3.198
X4.044Y-3.498
X4.052Y-2.565
X4.052Y-2.865
X4.1Y-2.082
X4.1Y-2.382
X4.141Y-1.857
X4.144Y-3.198
X4.144Y-3.498
X4.152Y-2.565
X4.152Y-2.865
X4.244Y-3.198
X4.244Y-3.498
X4.252Y-2.565
X4.252Y-2.865
X4.332Y-1.791
X4.332Y-1.891
X4.344Y-3.198
X4.344Y-3.498
X4.352Y-2.565
X4.352Y-2.865
X4.444Y-3.198
X4.444Y-3.498
X4.498Y-2.531
X4.498Y-2.831
X4.544Y-3.198
X4.544Y-3.498
X4.632Y-1.791
X4.632Y-1.891
X4.647Y-2.531
X4.647Y-2.831
X4.7Y-3.324
X4.7Y-3.624
T3
X3.435Y-3.116
X3.535Y-3.116
T4
X3.7878Y-3.6761
X3.8423Y-3.7879
X3.8968Y-3.6761
X3.9513Y-3.7879
X3.9791Y-3.029
X4.0059Y-3.6761
X4.0604Y-3.7879
X4.0776Y-3.029
X4.1149Y-3.6761
X4.1695Y-3.7879
X4.176Y-3.029
X4.224Y-3.6761
T5
X3.4903Y-1.942
X3.4903Y-2.0404
X3.573Y-1.942
X3.6753Y-1.942
X3.758Y-1.942
X3.758Y-2.0404
T6
X3.5137Y-3.732
X4.498Y-3.732
T2
X3.3584Y-1.8514G85X3.3584Y-1.7963
G05
X3.6517Y-1.7924G85X3.5966Y-1.7924
G05
X3.8899Y-1.8514G85X3.8899Y-1.7963
G05
T4
X4.2648Y-2.3114G85X4.2648Y-2.2326
G05
X4.4223Y-2.087G85X4.3435Y-2.087
G05
X4.501Y-2.3114G85X4.501Y-2.2326
G05
T0
M30
