%TF.GenerationSoftware,KiCad,Pcbnew,4.0.7*%
%TF.CreationDate,2018-07-15T04:01:03+03:00*%
%TF.ProjectId,AmstradPS2Mouse,416D73747261645053324D6F7573652E,rev?*%
%TF.FileFunction,Legend,Bot*%
%FSLAX46Y46*%
G04 Gerber Fmt 4.6, Leading zero omitted, Abs format (unit mm)*
G04 Created by KiCad (PCBNEW 4.0.7) date 07/15/18 04:01:03*
%MOMM*%
%LPD*%
G01*
G04 APERTURE LIST*
%ADD10C,0.100000*%
%ADD11C,0.150000*%
%ADD12C,0.200000*%
G04 APERTURE END LIST*
D10*
D11*
X83540000Y-103809800D02*
X83540000Y-42697400D01*
X122605800Y-103809800D02*
X83540000Y-103809800D01*
X122605800Y-42672000D02*
X122605800Y-103809800D01*
X83540000Y-42697400D02*
X122605800Y-42672000D01*
D12*
X109736496Y-99025267D02*
X109260305Y-99025267D01*
X109831734Y-99310981D02*
X109498401Y-98310981D01*
X109165067Y-99310981D01*
X108831734Y-99310981D02*
X108831734Y-98644314D01*
X108831734Y-98739552D02*
X108784115Y-98691933D01*
X108688877Y-98644314D01*
X108546019Y-98644314D01*
X108450781Y-98691933D01*
X108403162Y-98787171D01*
X108403162Y-99310981D01*
X108403162Y-98787171D02*
X108355543Y-98691933D01*
X108260305Y-98644314D01*
X108117448Y-98644314D01*
X108022210Y-98691933D01*
X107974591Y-98787171D01*
X107974591Y-99310981D01*
X107546020Y-99263362D02*
X107450782Y-99310981D01*
X107260306Y-99310981D01*
X107165067Y-99263362D01*
X107117448Y-99168124D01*
X107117448Y-99120505D01*
X107165067Y-99025267D01*
X107260306Y-98977648D01*
X107403163Y-98977648D01*
X107498401Y-98930029D01*
X107546020Y-98834790D01*
X107546020Y-98787171D01*
X107498401Y-98691933D01*
X107403163Y-98644314D01*
X107260306Y-98644314D01*
X107165067Y-98691933D01*
X106831734Y-98644314D02*
X106450782Y-98644314D01*
X106688877Y-98310981D02*
X106688877Y-99168124D01*
X106641258Y-99263362D01*
X106546020Y-99310981D01*
X106450782Y-99310981D01*
X106117448Y-99310981D02*
X106117448Y-98644314D01*
X106117448Y-98834790D02*
X106069829Y-98739552D01*
X106022210Y-98691933D01*
X105926972Y-98644314D01*
X105831733Y-98644314D01*
X105069828Y-99310981D02*
X105069828Y-98787171D01*
X105117447Y-98691933D01*
X105212685Y-98644314D01*
X105403162Y-98644314D01*
X105498400Y-98691933D01*
X105069828Y-99263362D02*
X105165066Y-99310981D01*
X105403162Y-99310981D01*
X105498400Y-99263362D01*
X105546019Y-99168124D01*
X105546019Y-99072886D01*
X105498400Y-98977648D01*
X105403162Y-98930029D01*
X105165066Y-98930029D01*
X105069828Y-98882410D01*
X104165066Y-99310981D02*
X104165066Y-98310981D01*
X104165066Y-99263362D02*
X104260304Y-99310981D01*
X104450781Y-99310981D01*
X104546019Y-99263362D01*
X104593638Y-99215743D01*
X104641257Y-99120505D01*
X104641257Y-98834790D01*
X104593638Y-98739552D01*
X104546019Y-98691933D01*
X104450781Y-98644314D01*
X104260304Y-98644314D01*
X104165066Y-98691933D01*
X102926971Y-99310981D02*
X102926971Y-98310981D01*
X102546018Y-98310981D01*
X102450780Y-98358600D01*
X102403161Y-98406219D01*
X102355542Y-98501457D01*
X102355542Y-98644314D01*
X102403161Y-98739552D01*
X102450780Y-98787171D01*
X102546018Y-98834790D01*
X102926971Y-98834790D01*
X101974590Y-99263362D02*
X101831733Y-99310981D01*
X101593637Y-99310981D01*
X101498399Y-99263362D01*
X101450780Y-99215743D01*
X101403161Y-99120505D01*
X101403161Y-99025267D01*
X101450780Y-98930029D01*
X101498399Y-98882410D01*
X101593637Y-98834790D01*
X101784114Y-98787171D01*
X101879352Y-98739552D01*
X101926971Y-98691933D01*
X101974590Y-98596695D01*
X101974590Y-98501457D01*
X101926971Y-98406219D01*
X101879352Y-98358600D01*
X101784114Y-98310981D01*
X101546018Y-98310981D01*
X101403161Y-98358600D01*
X100260304Y-98263362D02*
X101117447Y-99549076D01*
X99974590Y-98406219D02*
X99926971Y-98358600D01*
X99831733Y-98310981D01*
X99593637Y-98310981D01*
X99498399Y-98358600D01*
X99450780Y-98406219D01*
X99403161Y-98501457D01*
X99403161Y-98596695D01*
X99450780Y-98739552D01*
X100022209Y-99310981D01*
X99403161Y-99310981D01*
X98212685Y-99310981D02*
X98212685Y-98310981D01*
X97879351Y-99025267D01*
X97546018Y-98310981D01*
X97546018Y-99310981D01*
X96926971Y-99310981D02*
X97022209Y-99263362D01*
X97069828Y-99215743D01*
X97117447Y-99120505D01*
X97117447Y-98834790D01*
X97069828Y-98739552D01*
X97022209Y-98691933D01*
X96926971Y-98644314D01*
X96784113Y-98644314D01*
X96688875Y-98691933D01*
X96641256Y-98739552D01*
X96593637Y-98834790D01*
X96593637Y-99120505D01*
X96641256Y-99215743D01*
X96688875Y-99263362D01*
X96784113Y-99310981D01*
X96926971Y-99310981D01*
X95736494Y-98644314D02*
X95736494Y-99310981D01*
X96165066Y-98644314D02*
X96165066Y-99168124D01*
X96117447Y-99263362D01*
X96022209Y-99310981D01*
X95879351Y-99310981D01*
X95784113Y-99263362D01*
X95736494Y-99215743D01*
X95307923Y-99263362D02*
X95212685Y-99310981D01*
X95022209Y-99310981D01*
X94926970Y-99263362D01*
X94879351Y-99168124D01*
X94879351Y-99120505D01*
X94926970Y-99025267D01*
X95022209Y-98977648D01*
X95165066Y-98977648D01*
X95260304Y-98930029D01*
X95307923Y-98834790D01*
X95307923Y-98787171D01*
X95260304Y-98691933D01*
X95165066Y-98644314D01*
X95022209Y-98644314D01*
X94926970Y-98691933D01*
X94069827Y-99263362D02*
X94165065Y-99310981D01*
X94355542Y-99310981D01*
X94450780Y-99263362D01*
X94498399Y-99168124D01*
X94498399Y-98787171D01*
X94450780Y-98691933D01*
X94355542Y-98644314D01*
X94165065Y-98644314D01*
X94069827Y-98691933D01*
X94022208Y-98787171D01*
X94022208Y-98882410D01*
X94498399Y-98977648D01*
X107760306Y-100725267D02*
X107284115Y-100725267D01*
X107855544Y-101010981D02*
X107522211Y-100010981D01*
X107188877Y-101010981D01*
X106426972Y-101010981D02*
X106426972Y-100010981D01*
X106426972Y-100963362D02*
X106522210Y-101010981D01*
X106712687Y-101010981D01*
X106807925Y-100963362D01*
X106855544Y-100915743D01*
X106903163Y-100820505D01*
X106903163Y-100534790D01*
X106855544Y-100439552D01*
X106807925Y-100391933D01*
X106712687Y-100344314D01*
X106522210Y-100344314D01*
X106426972Y-100391933D01*
X105522210Y-101010981D02*
X105522210Y-100487171D01*
X105569829Y-100391933D01*
X105665067Y-100344314D01*
X105855544Y-100344314D01*
X105950782Y-100391933D01*
X105522210Y-100963362D02*
X105617448Y-101010981D01*
X105855544Y-101010981D01*
X105950782Y-100963362D01*
X105998401Y-100868124D01*
X105998401Y-100772886D01*
X105950782Y-100677648D01*
X105855544Y-100630029D01*
X105617448Y-100630029D01*
X105522210Y-100582410D01*
X105046020Y-100344314D02*
X105046020Y-101344314D01*
X105046020Y-100391933D02*
X104950782Y-100344314D01*
X104760305Y-100344314D01*
X104665067Y-100391933D01*
X104617448Y-100439552D01*
X104569829Y-100534790D01*
X104569829Y-100820505D01*
X104617448Y-100915743D01*
X104665067Y-100963362D01*
X104760305Y-101010981D01*
X104950782Y-101010981D01*
X105046020Y-100963362D01*
X104284115Y-100344314D02*
X103903163Y-100344314D01*
X104141258Y-100010981D02*
X104141258Y-100868124D01*
X104093639Y-100963362D01*
X103998401Y-101010981D01*
X103903163Y-101010981D01*
X103188876Y-100963362D02*
X103284114Y-101010981D01*
X103474591Y-101010981D01*
X103569829Y-100963362D01*
X103617448Y-100868124D01*
X103617448Y-100487171D01*
X103569829Y-100391933D01*
X103474591Y-100344314D01*
X103284114Y-100344314D01*
X103188876Y-100391933D01*
X103141257Y-100487171D01*
X103141257Y-100582410D01*
X103617448Y-100677648D01*
X102712686Y-101010981D02*
X102712686Y-100344314D01*
X102712686Y-100534790D02*
X102665067Y-100439552D01*
X102617448Y-100391933D01*
X102522210Y-100344314D01*
X102426971Y-100344314D01*
X101331733Y-101010981D02*
X101331733Y-100010981D01*
X101331733Y-100391933D02*
X101236495Y-100344314D01*
X101046018Y-100344314D01*
X100950780Y-100391933D01*
X100903161Y-100439552D01*
X100855542Y-100534790D01*
X100855542Y-100820505D01*
X100903161Y-100915743D01*
X100950780Y-100963362D01*
X101046018Y-101010981D01*
X101236495Y-101010981D01*
X101331733Y-100963362D01*
X100522209Y-100344314D02*
X100284114Y-101010981D01*
X100046018Y-100344314D02*
X100284114Y-101010981D01*
X100379352Y-101249076D01*
X100426971Y-101296695D01*
X100522209Y-101344314D01*
X98569827Y-100487171D02*
X98426970Y-100534790D01*
X98379351Y-100582410D01*
X98331732Y-100677648D01*
X98331732Y-100820505D01*
X98379351Y-100915743D01*
X98426970Y-100963362D01*
X98522208Y-101010981D01*
X98903161Y-101010981D01*
X98903161Y-100010981D01*
X98569827Y-100010981D01*
X98474589Y-100058600D01*
X98426970Y-100106219D01*
X98379351Y-100201457D01*
X98379351Y-100296695D01*
X98426970Y-100391933D01*
X98474589Y-100439552D01*
X98569827Y-100487171D01*
X98903161Y-100487171D01*
X97903161Y-101010981D02*
X97903161Y-100344314D01*
X97903161Y-100534790D02*
X97855542Y-100439552D01*
X97807923Y-100391933D01*
X97712685Y-100344314D01*
X97617446Y-100344314D01*
X97379351Y-100344314D02*
X97141256Y-101010981D01*
X96903160Y-100344314D02*
X97141256Y-101010981D01*
X97236494Y-101249076D01*
X97284113Y-101296695D01*
X97379351Y-101344314D01*
X96093636Y-100963362D02*
X96188874Y-101010981D01*
X96379351Y-101010981D01*
X96474589Y-100963362D01*
X96522208Y-100915743D01*
X96569827Y-100820505D01*
X96569827Y-100534790D01*
X96522208Y-100439552D01*
X96474589Y-100391933D01*
X96379351Y-100344314D01*
X96188874Y-100344314D01*
X96093636Y-100391933D01*
X95284112Y-100963362D02*
X95379350Y-101010981D01*
X95569827Y-101010981D01*
X95665065Y-100963362D01*
X95712684Y-100868124D01*
X95712684Y-100487171D01*
X95665065Y-100391933D01*
X95569827Y-100344314D01*
X95379350Y-100344314D01*
X95284112Y-100391933D01*
X95236493Y-100487171D01*
X95236493Y-100582410D01*
X95712684Y-100677648D01*
X109331733Y-102710981D02*
X109331733Y-101710981D01*
X108950780Y-101710981D01*
X108855542Y-101758600D01*
X108807923Y-101806219D01*
X108760304Y-101901457D01*
X108760304Y-102044314D01*
X108807923Y-102139552D01*
X108855542Y-102187171D01*
X108950780Y-102234790D01*
X109331733Y-102234790D01*
X107760304Y-102615743D02*
X107807923Y-102663362D01*
X107950780Y-102710981D01*
X108046018Y-102710981D01*
X108188876Y-102663362D01*
X108284114Y-102568124D01*
X108331733Y-102472886D01*
X108379352Y-102282410D01*
X108379352Y-102139552D01*
X108331733Y-101949076D01*
X108284114Y-101853838D01*
X108188876Y-101758600D01*
X108046018Y-101710981D01*
X107950780Y-101710981D01*
X107807923Y-101758600D01*
X107760304Y-101806219D01*
X106998399Y-102187171D02*
X106855542Y-102234790D01*
X106807923Y-102282410D01*
X106760304Y-102377648D01*
X106760304Y-102520505D01*
X106807923Y-102615743D01*
X106855542Y-102663362D01*
X106950780Y-102710981D01*
X107331733Y-102710981D01*
X107331733Y-101710981D01*
X106998399Y-101710981D01*
X106903161Y-101758600D01*
X106855542Y-101806219D01*
X106807923Y-101901457D01*
X106807923Y-101996695D01*
X106855542Y-102091933D01*
X106903161Y-102139552D01*
X106998399Y-102187171D01*
X107331733Y-102187171D01*
X105569828Y-102710981D02*
X105569828Y-101710981D01*
X105569828Y-102091933D02*
X105474590Y-102044314D01*
X105284113Y-102044314D01*
X105188875Y-102091933D01*
X105141256Y-102139552D01*
X105093637Y-102234790D01*
X105093637Y-102520505D01*
X105141256Y-102615743D01*
X105188875Y-102663362D01*
X105284113Y-102710981D01*
X105474590Y-102710981D01*
X105569828Y-102663362D01*
X104760304Y-102044314D02*
X104522209Y-102710981D01*
X104284113Y-102044314D02*
X104522209Y-102710981D01*
X104617447Y-102949076D01*
X104665066Y-102996695D01*
X104760304Y-103044314D01*
X103141256Y-102710981D02*
X103141256Y-101710981D01*
X102665066Y-102615743D02*
X102617447Y-102663362D01*
X102665066Y-102710981D01*
X102712685Y-102663362D01*
X102665066Y-102615743D01*
X102665066Y-102710981D01*
X101617447Y-102710981D02*
X101950781Y-102234790D01*
X102188876Y-102710981D02*
X102188876Y-101710981D01*
X101807923Y-101710981D01*
X101712685Y-101758600D01*
X101665066Y-101806219D01*
X101617447Y-101901457D01*
X101617447Y-102044314D01*
X101665066Y-102139552D01*
X101712685Y-102187171D01*
X101807923Y-102234790D01*
X102188876Y-102234790D01*
X101188876Y-102615743D02*
X101141257Y-102663362D01*
X101188876Y-102710981D01*
X101236495Y-102663362D01*
X101188876Y-102615743D01*
X101188876Y-102710981D01*
X100569829Y-102710981D02*
X100665067Y-102663362D01*
X100712686Y-102615743D01*
X100760305Y-102520505D01*
X100760305Y-102234790D01*
X100712686Y-102139552D01*
X100665067Y-102091933D01*
X100569829Y-102044314D01*
X100426971Y-102044314D01*
X100331733Y-102091933D01*
X100284114Y-102139552D01*
X100236495Y-102234790D01*
X100236495Y-102520505D01*
X100284114Y-102615743D01*
X100331733Y-102663362D01*
X100426971Y-102710981D01*
X100569829Y-102710981D01*
X99807924Y-102044314D02*
X99807924Y-102710981D01*
X99807924Y-102139552D02*
X99760305Y-102091933D01*
X99665067Y-102044314D01*
X99522209Y-102044314D01*
X99426971Y-102091933D01*
X99379352Y-102187171D01*
X99379352Y-102710981D01*
X98188876Y-101663362D02*
X99046019Y-102949076D01*
X97855543Y-102710981D02*
X97855543Y-101710981D01*
X97379353Y-102710981D02*
X97379353Y-102044314D01*
X97379353Y-102234790D02*
X97331734Y-102139552D01*
X97284115Y-102091933D01*
X97188877Y-102044314D01*
X97093638Y-102044314D01*
X96331733Y-102710981D02*
X96331733Y-101710981D01*
X96331733Y-102663362D02*
X96426971Y-102710981D01*
X96617448Y-102710981D01*
X96712686Y-102663362D01*
X96760305Y-102615743D01*
X96807924Y-102520505D01*
X96807924Y-102234790D01*
X96760305Y-102139552D01*
X96712686Y-102091933D01*
X96617448Y-102044314D01*
X96426971Y-102044314D01*
X96331733Y-102091933D01*
X95426971Y-102044314D02*
X95426971Y-102710981D01*
X95855543Y-102044314D02*
X95855543Y-102568124D01*
X95807924Y-102663362D01*
X95712686Y-102710981D01*
X95569828Y-102710981D01*
X95474590Y-102663362D01*
X95426971Y-102615743D01*
X94522209Y-102663362D02*
X94617447Y-102710981D01*
X94807924Y-102710981D01*
X94903162Y-102663362D01*
X94950781Y-102615743D01*
X94998400Y-102520505D01*
X94998400Y-102234790D01*
X94950781Y-102139552D01*
X94903162Y-102091933D01*
X94807924Y-102044314D01*
X94617447Y-102044314D01*
X94522209Y-102091933D01*
X93950781Y-102710981D02*
X94046019Y-102663362D01*
X94093638Y-102615743D01*
X94141257Y-102520505D01*
X94141257Y-102234790D01*
X94093638Y-102139552D01*
X94046019Y-102091933D01*
X93950781Y-102044314D01*
X93807923Y-102044314D01*
X93712685Y-102091933D01*
X93665066Y-102139552D01*
X93617447Y-102234790D01*
X93617447Y-102520505D01*
X93665066Y-102615743D01*
X93712685Y-102663362D01*
X93807923Y-102710981D01*
X93950781Y-102710981D01*
M02*
