%TF.GenerationSoftware,KiCad,Pcbnew,4.0.7*%
%TF.CreationDate,2018-07-15T04:01:03+03:00*%
%TF.ProjectId,AmstradPS2Mouse,416D73747261645053324D6F7573652E,rev?*%
%TF.FileFunction,Legend,Top*%
%FSLAX46Y46*%
G04 Gerber Fmt 4.6, Leading zero omitted, Abs format (unit mm)*
G04 Created by KiCad (PCBNEW 4.0.7) date 07/15/18 04:01:03*
%MOMM*%
%LPD*%
G01*
G04 APERTURE LIST*
%ADD10C,0.100000*%
%ADD11C,0.150000*%
%ADD12C,0.120000*%
G04 APERTURE END LIST*
D10*
D11*
X83540000Y-103809800D02*
X83540000Y-42697400D01*
X122605800Y-103809800D02*
X83540000Y-103809800D01*
X122605800Y-42672000D02*
X122605800Y-103809800D01*
X83540000Y-42697400D02*
X122605800Y-42672000D01*
D12*
X113325400Y-53108800D02*
X122125400Y-53108800D01*
X122125400Y-53108800D02*
X122125400Y-62308800D01*
X107425400Y-55808800D02*
X107425400Y-53108800D01*
X107425400Y-53108800D02*
X109325400Y-53108800D01*
X122125400Y-62308800D02*
X107425400Y-62308800D01*
X107425400Y-62308800D02*
X107425400Y-59708800D01*
X86480400Y-88737000D02*
X86480400Y-81617000D01*
X90100400Y-88737000D02*
X90100400Y-81617000D01*
X86480400Y-88737000D02*
X90100400Y-88737000D01*
X86480400Y-81617000D02*
X90100400Y-81617000D01*
D11*
X99063600Y-42824400D02*
X99063600Y-44602400D01*
X85042800Y-48056800D02*
X85042800Y-55829200D01*
X85042800Y-55829200D02*
X99063600Y-55829200D01*
X99063600Y-55829200D02*
X99063600Y-48056800D01*
X99063600Y-42824400D02*
X85042800Y-42824400D01*
X85042800Y-42824400D02*
X85042800Y-44602400D01*
D12*
X86264200Y-103852800D02*
X86264200Y-91512800D01*
X86264200Y-91512800D02*
X117234200Y-91512800D01*
X117234200Y-91512800D02*
X117234200Y-103852800D01*
X107039200Y-90618462D02*
X107539200Y-90618462D01*
X107539200Y-90618462D02*
X107289200Y-91051475D01*
X107289200Y-91051475D02*
X107039200Y-90618462D01*
X111992800Y-74806400D02*
X111992800Y-78406400D01*
X112004322Y-74767922D02*
G75*
G02X116442800Y-76606400I1838478J-1838478D01*
G01*
X112004322Y-78444878D02*
G75*
G03X116442800Y-76606400I1838478J1838478D01*
G01*
X116768000Y-74806400D02*
X116768000Y-78406400D01*
X116779522Y-74767922D02*
G75*
G02X121218000Y-76606400I1838478J-1838478D01*
G01*
X116779522Y-78444878D02*
G75*
G03X121218000Y-76606400I1838478J1838478D01*
G01*
X99883400Y-59902800D02*
X99553400Y-59902800D01*
X99553400Y-59902800D02*
X99553400Y-53482800D01*
X99553400Y-53482800D02*
X99883400Y-53482800D01*
X101843400Y-59902800D02*
X102173400Y-59902800D01*
X102173400Y-59902800D02*
X102173400Y-53482800D01*
X102173400Y-53482800D02*
X101843400Y-53482800D01*
X95208800Y-58587200D02*
X95208800Y-58917200D01*
X95208800Y-58917200D02*
X88788800Y-58917200D01*
X88788800Y-58917200D02*
X88788800Y-58587200D01*
X95208800Y-56627200D02*
X95208800Y-56297200D01*
X95208800Y-56297200D02*
X88788800Y-56297200D01*
X88788800Y-56297200D02*
X88788800Y-56627200D01*
X95208800Y-61863800D02*
X95208800Y-62193800D01*
X95208800Y-62193800D02*
X88788800Y-62193800D01*
X88788800Y-62193800D02*
X88788800Y-61863800D01*
X95208800Y-59903800D02*
X95208800Y-59573800D01*
X95208800Y-59573800D02*
X88788800Y-59573800D01*
X88788800Y-59573800D02*
X88788800Y-59903800D01*
X103160000Y-59902800D02*
X102830000Y-59902800D01*
X102830000Y-59902800D02*
X102830000Y-53482800D01*
X102830000Y-53482800D02*
X103160000Y-53482800D01*
X105120000Y-59902800D02*
X105450000Y-59902800D01*
X105450000Y-59902800D02*
X105450000Y-53482800D01*
X105450000Y-53482800D02*
X105120000Y-53482800D01*
X89449200Y-74966000D02*
X89449200Y-74636000D01*
X89449200Y-74636000D02*
X95869200Y-74636000D01*
X95869200Y-74636000D02*
X95869200Y-74966000D01*
X89449200Y-76926000D02*
X89449200Y-77256000D01*
X89449200Y-77256000D02*
X95869200Y-77256000D01*
X95869200Y-77256000D02*
X95869200Y-76926000D01*
X113269200Y-71307400D02*
X112939200Y-71307400D01*
X112939200Y-71307400D02*
X112939200Y-64887400D01*
X112939200Y-64887400D02*
X113269200Y-64887400D01*
X115229200Y-71307400D02*
X115559200Y-71307400D01*
X115559200Y-71307400D02*
X115559200Y-64887400D01*
X115559200Y-64887400D02*
X115229200Y-64887400D01*
X117053800Y-71307400D02*
X116723800Y-71307400D01*
X116723800Y-71307400D02*
X116723800Y-64887400D01*
X116723800Y-64887400D02*
X117053800Y-64887400D01*
X119013800Y-71307400D02*
X119343800Y-71307400D01*
X119343800Y-71307400D02*
X119343800Y-64887400D01*
X119343800Y-64887400D02*
X119013800Y-64887400D01*
X120360000Y-85029600D02*
X120690000Y-85029600D01*
X120690000Y-85029600D02*
X120690000Y-91449600D01*
X120690000Y-91449600D02*
X120360000Y-91449600D01*
X118400000Y-85029600D02*
X118070000Y-85029600D01*
X118070000Y-85029600D02*
X118070000Y-91449600D01*
X118070000Y-91449600D02*
X118400000Y-91449600D01*
X119052800Y-50711400D02*
X119052800Y-49441400D01*
X119052800Y-50711400D02*
X116512800Y-50711400D01*
X118852800Y-50511400D02*
X108832800Y-50511400D01*
X108832800Y-50511400D02*
X108832800Y-43011400D01*
X108832800Y-43011400D02*
X118852800Y-43011400D01*
X118852800Y-43011400D02*
X118852800Y-50511400D01*
X115872800Y-48666400D02*
X115872800Y-47396400D01*
X115872800Y-47396400D02*
X111812800Y-47396400D01*
X111812800Y-47396400D02*
X111812800Y-48666400D01*
X111812800Y-48666400D02*
X115872800Y-48666400D01*
X113842800Y-48666400D02*
X113842800Y-47396400D01*
X115872800Y-46126400D02*
X115872800Y-44856400D01*
X115872800Y-44856400D02*
X111812800Y-44856400D01*
X111812800Y-44856400D02*
X111812800Y-46126400D01*
X111812800Y-46126400D02*
X115872800Y-46126400D01*
X113842800Y-46126400D02*
X113842800Y-44856400D01*
X111870800Y-69961000D02*
G75*
G02X111870800Y-67961000I0J1000000D01*
G01*
X111870800Y-67961000D02*
X111870800Y-66311000D01*
X111870800Y-66311000D02*
X88890800Y-66311000D01*
X88890800Y-66311000D02*
X88890800Y-71611000D01*
X88890800Y-71611000D02*
X111870800Y-71611000D01*
X111870800Y-71611000D02*
X111870800Y-69961000D01*
X116747600Y-86039200D02*
G75*
G02X116747600Y-84039200I0J1000000D01*
G01*
X116747600Y-84039200D02*
X116747600Y-82389200D01*
X116747600Y-82389200D02*
X91227600Y-82389200D01*
X91227600Y-82389200D02*
X91227600Y-87689200D01*
X91227600Y-87689200D02*
X116747600Y-87689200D01*
X116747600Y-87689200D02*
X116747600Y-86039200D01*
X116807600Y-79899200D02*
X91167600Y-79899200D01*
X91167600Y-79899200D02*
X91167600Y-90179200D01*
X91167600Y-90179200D02*
X116807600Y-90179200D01*
X116807600Y-90179200D02*
X116807600Y-79899200D01*
X105070400Y-78636600D02*
X102070400Y-78636600D01*
X105070400Y-75236600D02*
X102070400Y-75236600D01*
X106408190Y-77985561D02*
G75*
G02X105070400Y-78636600I-1337790J1048961D01*
G01*
X100732610Y-77985561D02*
G75*
G03X102070400Y-78636600I1337790J1048961D01*
G01*
X106408190Y-75887639D02*
G75*
G03X105070400Y-75236600I-1337790J-1048961D01*
G01*
X100732610Y-75887639D02*
G75*
G02X102070400Y-75236600I1337790J-1048961D01*
G01*
X88329000Y-78086400D02*
X89060000Y-78086400D01*
X88329000Y-80206400D02*
X89060000Y-80206400D01*
X108021400Y-47167800D02*
G75*
G03X108021400Y-47167800I-4090000J0D01*
G01*
X103931400Y-43117800D02*
X103931400Y-51217800D01*
X103971400Y-43117800D02*
X103971400Y-51217800D01*
X104011400Y-43117800D02*
X104011400Y-51217800D01*
X104051400Y-43118800D02*
X104051400Y-51216800D01*
X104091400Y-43120800D02*
X104091400Y-51214800D01*
X104131400Y-43121800D02*
X104131400Y-51213800D01*
X104171400Y-43124800D02*
X104171400Y-51210800D01*
X104211400Y-43126800D02*
X104211400Y-46187800D01*
X104211400Y-48147800D02*
X104211400Y-51208800D01*
X104251400Y-43129800D02*
X104251400Y-46187800D01*
X104251400Y-48147800D02*
X104251400Y-51205800D01*
X104291400Y-43132800D02*
X104291400Y-46187800D01*
X104291400Y-48147800D02*
X104291400Y-51202800D01*
X104331400Y-43136800D02*
X104331400Y-46187800D01*
X104331400Y-48147800D02*
X104331400Y-51198800D01*
X104371400Y-43140800D02*
X104371400Y-46187800D01*
X104371400Y-48147800D02*
X104371400Y-51194800D01*
X104411400Y-43145800D02*
X104411400Y-46187800D01*
X104411400Y-48147800D02*
X104411400Y-51189800D01*
X104451400Y-43150800D02*
X104451400Y-46187800D01*
X104451400Y-48147800D02*
X104451400Y-51184800D01*
X104491400Y-43155800D02*
X104491400Y-46187800D01*
X104491400Y-48147800D02*
X104491400Y-51179800D01*
X104531400Y-43161800D02*
X104531400Y-46187800D01*
X104531400Y-48147800D02*
X104531400Y-51173800D01*
X104571400Y-43167800D02*
X104571400Y-46187800D01*
X104571400Y-48147800D02*
X104571400Y-51167800D01*
X104611400Y-43173800D02*
X104611400Y-46187800D01*
X104611400Y-48147800D02*
X104611400Y-51161800D01*
X104652400Y-43180800D02*
X104652400Y-46187800D01*
X104652400Y-48147800D02*
X104652400Y-51154800D01*
X104692400Y-43188800D02*
X104692400Y-46187800D01*
X104692400Y-48147800D02*
X104692400Y-51146800D01*
X104732400Y-43196800D02*
X104732400Y-46187800D01*
X104732400Y-48147800D02*
X104732400Y-51138800D01*
X104772400Y-43204800D02*
X104772400Y-46187800D01*
X104772400Y-48147800D02*
X104772400Y-51130800D01*
X104812400Y-43212800D02*
X104812400Y-46187800D01*
X104812400Y-48147800D02*
X104812400Y-51122800D01*
X104852400Y-43221800D02*
X104852400Y-46187800D01*
X104852400Y-48147800D02*
X104852400Y-51113800D01*
X104892400Y-43231800D02*
X104892400Y-46187800D01*
X104892400Y-48147800D02*
X104892400Y-51103800D01*
X104932400Y-43241800D02*
X104932400Y-46187800D01*
X104932400Y-48147800D02*
X104932400Y-51093800D01*
X104972400Y-43251800D02*
X104972400Y-46187800D01*
X104972400Y-48147800D02*
X104972400Y-51083800D01*
X105012400Y-43262800D02*
X105012400Y-46187800D01*
X105012400Y-48147800D02*
X105012400Y-51072800D01*
X105052400Y-43273800D02*
X105052400Y-46187800D01*
X105052400Y-48147800D02*
X105052400Y-51061800D01*
X105092400Y-43284800D02*
X105092400Y-46187800D01*
X105092400Y-48147800D02*
X105092400Y-51050800D01*
X105132400Y-43297800D02*
X105132400Y-46187800D01*
X105132400Y-48147800D02*
X105132400Y-51037800D01*
X105172400Y-43309800D02*
X105172400Y-46187800D01*
X105172400Y-48147800D02*
X105172400Y-51025800D01*
X105212400Y-43322800D02*
X105212400Y-46187800D01*
X105212400Y-48147800D02*
X105212400Y-51012800D01*
X105252400Y-43335800D02*
X105252400Y-46187800D01*
X105252400Y-48147800D02*
X105252400Y-50999800D01*
X105292400Y-43349800D02*
X105292400Y-46187800D01*
X105292400Y-48147800D02*
X105292400Y-50985800D01*
X105332400Y-43364800D02*
X105332400Y-46187800D01*
X105332400Y-48147800D02*
X105332400Y-50970800D01*
X105372400Y-43378800D02*
X105372400Y-46187800D01*
X105372400Y-48147800D02*
X105372400Y-50956800D01*
X105412400Y-43394800D02*
X105412400Y-46187800D01*
X105412400Y-48147800D02*
X105412400Y-50940800D01*
X105452400Y-43409800D02*
X105452400Y-46187800D01*
X105452400Y-48147800D02*
X105452400Y-50925800D01*
X105492400Y-43426800D02*
X105492400Y-46187800D01*
X105492400Y-48147800D02*
X105492400Y-50908800D01*
X105532400Y-43442800D02*
X105532400Y-46187800D01*
X105532400Y-48147800D02*
X105532400Y-50892800D01*
X105572400Y-43460800D02*
X105572400Y-46187800D01*
X105572400Y-48147800D02*
X105572400Y-50874800D01*
X105612400Y-43477800D02*
X105612400Y-46187800D01*
X105612400Y-48147800D02*
X105612400Y-50857800D01*
X105652400Y-43496800D02*
X105652400Y-46187800D01*
X105652400Y-48147800D02*
X105652400Y-50838800D01*
X105692400Y-43515800D02*
X105692400Y-46187800D01*
X105692400Y-48147800D02*
X105692400Y-50819800D01*
X105732400Y-43534800D02*
X105732400Y-46187800D01*
X105732400Y-48147800D02*
X105732400Y-50800800D01*
X105772400Y-43554800D02*
X105772400Y-46187800D01*
X105772400Y-48147800D02*
X105772400Y-50780800D01*
X105812400Y-43574800D02*
X105812400Y-46187800D01*
X105812400Y-48147800D02*
X105812400Y-50760800D01*
X105852400Y-43595800D02*
X105852400Y-46187800D01*
X105852400Y-48147800D02*
X105852400Y-50739800D01*
X105892400Y-43617800D02*
X105892400Y-46187800D01*
X105892400Y-48147800D02*
X105892400Y-50717800D01*
X105932400Y-43639800D02*
X105932400Y-46187800D01*
X105932400Y-48147800D02*
X105932400Y-50695800D01*
X105972400Y-43662800D02*
X105972400Y-46187800D01*
X105972400Y-48147800D02*
X105972400Y-50672800D01*
X106012400Y-43685800D02*
X106012400Y-46187800D01*
X106012400Y-48147800D02*
X106012400Y-50649800D01*
X106052400Y-43709800D02*
X106052400Y-46187800D01*
X106052400Y-48147800D02*
X106052400Y-50625800D01*
X106092400Y-43733800D02*
X106092400Y-46187800D01*
X106092400Y-48147800D02*
X106092400Y-50601800D01*
X106132400Y-43759800D02*
X106132400Y-46187800D01*
X106132400Y-48147800D02*
X106132400Y-50575800D01*
X106172400Y-43784800D02*
X106172400Y-50550800D01*
X106212400Y-43811800D02*
X106212400Y-50523800D01*
X106252400Y-43838800D02*
X106252400Y-50496800D01*
X106292400Y-43866800D02*
X106292400Y-50468800D01*
X106332400Y-43895800D02*
X106332400Y-50439800D01*
X106372400Y-43924800D02*
X106372400Y-50410800D01*
X106412400Y-43954800D02*
X106412400Y-50380800D01*
X106452400Y-43985800D02*
X106452400Y-50349800D01*
X106492400Y-44017800D02*
X106492400Y-50317800D01*
X106532400Y-44049800D02*
X106532400Y-50285800D01*
X106572400Y-44083800D02*
X106572400Y-50251800D01*
X106612400Y-44117800D02*
X106612400Y-50217800D01*
X106652400Y-44152800D02*
X106652400Y-50182800D01*
X106692400Y-44188800D02*
X106692400Y-50146800D01*
X106732400Y-44225800D02*
X106732400Y-50109800D01*
X106772400Y-44263800D02*
X106772400Y-50071800D01*
X106812400Y-44302800D02*
X106812400Y-50032800D01*
X106852400Y-44343800D02*
X106852400Y-49991800D01*
X106892400Y-44384800D02*
X106892400Y-49950800D01*
X106932400Y-44427800D02*
X106932400Y-49907800D01*
X106972400Y-44470800D02*
X106972400Y-49864800D01*
X107012400Y-44515800D02*
X107012400Y-49819800D01*
X107052400Y-44562800D02*
X107052400Y-49772800D01*
X107092400Y-44610800D02*
X107092400Y-49724800D01*
X107132400Y-44659800D02*
X107132400Y-49675800D01*
X107172400Y-44710800D02*
X107172400Y-49624800D01*
X107212400Y-44763800D02*
X107212400Y-49571800D01*
X107252400Y-44818800D02*
X107252400Y-49516800D01*
X107292400Y-44874800D02*
X107292400Y-49460800D01*
X107332400Y-44933800D02*
X107332400Y-49401800D01*
X107372400Y-44994800D02*
X107372400Y-49340800D01*
X107412400Y-45058800D02*
X107412400Y-49276800D01*
X107452400Y-45124800D02*
X107452400Y-49210800D01*
X107492400Y-45193800D02*
X107492400Y-49141800D01*
X107532400Y-45265800D02*
X107532400Y-49069800D01*
X107572400Y-45341800D02*
X107572400Y-48993800D01*
X107612400Y-45422800D02*
X107612400Y-48912800D01*
X107652400Y-45507800D02*
X107652400Y-48827800D01*
X107692400Y-45597800D02*
X107692400Y-48737800D01*
X107732400Y-45694800D02*
X107732400Y-48640800D01*
X107772400Y-45798800D02*
X107772400Y-48536800D01*
X107812400Y-45913800D02*
X107812400Y-48421800D01*
X107852400Y-46040800D02*
X107852400Y-48294800D01*
X107892400Y-46184800D02*
X107892400Y-48150800D01*
X107932400Y-46353800D02*
X107932400Y-47981800D01*
X107972400Y-46569800D02*
X107972400Y-47765800D01*
X108012400Y-46921800D02*
X108012400Y-47413800D01*
X100481400Y-47167800D02*
X101681400Y-47167800D01*
X101081400Y-46517800D02*
X101081400Y-47817800D01*
D11*
X116442067Y-51411181D02*
X116442067Y-52125467D01*
X116394447Y-52268324D01*
X116299209Y-52363562D01*
X116156352Y-52411181D01*
X116061114Y-52411181D01*
X117442067Y-52411181D02*
X116870638Y-52411181D01*
X117156352Y-52411181D02*
X117156352Y-51411181D01*
X117061114Y-51554038D01*
X116965876Y-51649276D01*
X116870638Y-51696895D01*
X88647543Y-85202066D02*
X88695162Y-85249685D01*
X88742781Y-85392542D01*
X88742781Y-85487780D01*
X88695162Y-85630638D01*
X88599924Y-85725876D01*
X88504686Y-85773495D01*
X88314210Y-85821114D01*
X88171352Y-85821114D01*
X87980876Y-85773495D01*
X87885638Y-85725876D01*
X87790400Y-85630638D01*
X87742781Y-85487780D01*
X87742781Y-85392542D01*
X87790400Y-85249685D01*
X87838019Y-85202066D01*
X87838019Y-84821114D02*
X87790400Y-84773495D01*
X87742781Y-84678257D01*
X87742781Y-84440161D01*
X87790400Y-84344923D01*
X87838019Y-84297304D01*
X87933257Y-84249685D01*
X88028495Y-84249685D01*
X88171352Y-84297304D01*
X88742781Y-84868733D01*
X88742781Y-84249685D01*
X87815106Y-54503581D02*
X87815106Y-53503581D01*
X88148440Y-54217867D01*
X88481773Y-53503581D01*
X88481773Y-54503581D01*
X88957963Y-54503581D02*
X88957963Y-53836914D01*
X88957963Y-53503581D02*
X88910344Y-53551200D01*
X88957963Y-53598819D01*
X89005582Y-53551200D01*
X88957963Y-53503581D01*
X88957963Y-53598819D01*
X89434153Y-53836914D02*
X89434153Y-54503581D01*
X89434153Y-53932152D02*
X89481772Y-53884533D01*
X89577010Y-53836914D01*
X89719868Y-53836914D01*
X89815106Y-53884533D01*
X89862725Y-53979771D01*
X89862725Y-54503581D01*
X90338915Y-54503581D02*
X90338915Y-53836914D01*
X90338915Y-53503581D02*
X90291296Y-53551200D01*
X90338915Y-53598819D01*
X90386534Y-53551200D01*
X90338915Y-53503581D01*
X90338915Y-53598819D01*
X90815105Y-54122629D02*
X91577010Y-54122629D01*
X92053200Y-54503581D02*
X92053200Y-53503581D01*
X92291295Y-53503581D01*
X92434153Y-53551200D01*
X92529391Y-53646438D01*
X92577010Y-53741676D01*
X92624629Y-53932152D01*
X92624629Y-54075010D01*
X92577010Y-54265486D01*
X92529391Y-54360724D01*
X92434153Y-54455962D01*
X92291295Y-54503581D01*
X92053200Y-54503581D01*
X93053200Y-54503581D02*
X93053200Y-53503581D01*
X93529390Y-54503581D02*
X93529390Y-53503581D01*
X94100819Y-54503581D01*
X94100819Y-53503581D01*
X94577009Y-54122629D02*
X95338914Y-54122629D01*
X96243676Y-53503581D02*
X96053199Y-53503581D01*
X95957961Y-53551200D01*
X95910342Y-53598819D01*
X95815104Y-53741676D01*
X95767485Y-53932152D01*
X95767485Y-54313105D01*
X95815104Y-54408343D01*
X95862723Y-54455962D01*
X95957961Y-54503581D01*
X96148438Y-54503581D01*
X96243676Y-54455962D01*
X96291295Y-54408343D01*
X96338914Y-54313105D01*
X96338914Y-54075010D01*
X96291295Y-53979771D01*
X96243676Y-53932152D01*
X96148438Y-53884533D01*
X95957961Y-53884533D01*
X95862723Y-53932152D01*
X95815104Y-53979771D01*
X95767485Y-54075010D01*
X101415867Y-90025181D02*
X101415867Y-90739467D01*
X101368247Y-90882324D01*
X101273009Y-90977562D01*
X101130152Y-91025181D01*
X101034914Y-91025181D01*
X101796819Y-90025181D02*
X102415867Y-90025181D01*
X102082533Y-90406133D01*
X102225391Y-90406133D01*
X102320629Y-90453752D01*
X102368248Y-90501371D01*
X102415867Y-90596610D01*
X102415867Y-90834705D01*
X102368248Y-90929943D01*
X102320629Y-90977562D01*
X102225391Y-91025181D01*
X101939676Y-91025181D01*
X101844438Y-90977562D01*
X101796819Y-90929943D01*
X101341181Y-58535866D02*
X100864990Y-58869200D01*
X101341181Y-59107295D02*
X100341181Y-59107295D01*
X100341181Y-58726342D01*
X100388800Y-58631104D01*
X100436419Y-58583485D01*
X100531657Y-58535866D01*
X100674514Y-58535866D01*
X100769752Y-58583485D01*
X100817371Y-58631104D01*
X100864990Y-58726342D01*
X100864990Y-59107295D01*
X101341181Y-57583485D02*
X101341181Y-58154914D01*
X101341181Y-57869200D02*
X100341181Y-57869200D01*
X100484038Y-57964438D01*
X100579276Y-58059676D01*
X100626895Y-58154914D01*
X100750714Y-56589514D02*
X101417381Y-56589514D01*
X100369762Y-56827610D02*
X101084048Y-57065705D01*
X101084048Y-56446657D01*
X101417381Y-56065705D02*
X100417381Y-56065705D01*
X101417381Y-55494276D02*
X100845952Y-55922848D01*
X100417381Y-55494276D02*
X100988810Y-56065705D01*
X100417381Y-55160943D02*
X100417381Y-54494276D01*
X101417381Y-54922848D01*
X90206534Y-58135781D02*
X89873200Y-57659590D01*
X89635105Y-58135781D02*
X89635105Y-57135781D01*
X90016058Y-57135781D01*
X90111296Y-57183400D01*
X90158915Y-57231019D01*
X90206534Y-57326257D01*
X90206534Y-57469114D01*
X90158915Y-57564352D01*
X90111296Y-57611971D01*
X90016058Y-57659590D01*
X89635105Y-57659590D01*
X90587486Y-57231019D02*
X90635105Y-57183400D01*
X90730343Y-57135781D01*
X90968439Y-57135781D01*
X91063677Y-57183400D01*
X91111296Y-57231019D01*
X91158915Y-57326257D01*
X91158915Y-57421495D01*
X91111296Y-57564352D01*
X90539867Y-58135781D01*
X91158915Y-58135781D01*
X92400524Y-58135781D02*
X91829095Y-58135781D01*
X92114809Y-58135781D02*
X92114809Y-57135781D01*
X92019571Y-57278638D01*
X91924333Y-57373876D01*
X91829095Y-57421495D01*
X93019571Y-57135781D02*
X93114810Y-57135781D01*
X93210048Y-57183400D01*
X93257667Y-57231019D01*
X93305286Y-57326257D01*
X93352905Y-57516733D01*
X93352905Y-57754829D01*
X93305286Y-57945305D01*
X93257667Y-58040543D01*
X93210048Y-58088162D01*
X93114810Y-58135781D01*
X93019571Y-58135781D01*
X92924333Y-58088162D01*
X92876714Y-58040543D01*
X92829095Y-57945305D01*
X92781476Y-57754829D01*
X92781476Y-57516733D01*
X92829095Y-57326257D01*
X92876714Y-57231019D01*
X92924333Y-57183400D01*
X93019571Y-57135781D01*
X93781476Y-58135781D02*
X93781476Y-57135781D01*
X94352905Y-58135781D02*
X93924333Y-57564352D01*
X94352905Y-57135781D02*
X93781476Y-57707210D01*
X90308134Y-61336181D02*
X89974800Y-60859990D01*
X89736705Y-61336181D02*
X89736705Y-60336181D01*
X90117658Y-60336181D01*
X90212896Y-60383800D01*
X90260515Y-60431419D01*
X90308134Y-60526657D01*
X90308134Y-60669514D01*
X90260515Y-60764752D01*
X90212896Y-60812371D01*
X90117658Y-60859990D01*
X89736705Y-60859990D01*
X90641467Y-60336181D02*
X91260515Y-60336181D01*
X90927181Y-60717133D01*
X91070039Y-60717133D01*
X91165277Y-60764752D01*
X91212896Y-60812371D01*
X91260515Y-60907610D01*
X91260515Y-61145705D01*
X91212896Y-61240943D01*
X91165277Y-61288562D01*
X91070039Y-61336181D01*
X90784324Y-61336181D01*
X90689086Y-61288562D01*
X90641467Y-61240943D01*
X92527524Y-61336181D02*
X91956095Y-61336181D01*
X92241809Y-61336181D02*
X92241809Y-60336181D01*
X92146571Y-60479038D01*
X92051333Y-60574276D01*
X91956095Y-60621895D01*
X93146571Y-60336181D02*
X93241810Y-60336181D01*
X93337048Y-60383800D01*
X93384667Y-60431419D01*
X93432286Y-60526657D01*
X93479905Y-60717133D01*
X93479905Y-60955229D01*
X93432286Y-61145705D01*
X93384667Y-61240943D01*
X93337048Y-61288562D01*
X93241810Y-61336181D01*
X93146571Y-61336181D01*
X93051333Y-61288562D01*
X93003714Y-61240943D01*
X92956095Y-61145705D01*
X92908476Y-60955229D01*
X92908476Y-60717133D01*
X92956095Y-60526657D01*
X93003714Y-60431419D01*
X93051333Y-60383800D01*
X93146571Y-60336181D01*
X93908476Y-61336181D02*
X93908476Y-60336181D01*
X94479905Y-61336181D02*
X94051333Y-60764752D01*
X94479905Y-60336181D02*
X93908476Y-60907610D01*
X104541581Y-58612066D02*
X104065390Y-58945400D01*
X104541581Y-59183495D02*
X103541581Y-59183495D01*
X103541581Y-58802542D01*
X103589200Y-58707304D01*
X103636819Y-58659685D01*
X103732057Y-58612066D01*
X103874914Y-58612066D01*
X103970152Y-58659685D01*
X104017771Y-58707304D01*
X104065390Y-58802542D01*
X104065390Y-59183495D01*
X103874914Y-57754923D02*
X104541581Y-57754923D01*
X103493962Y-57993019D02*
X104208248Y-58231114D01*
X104208248Y-57612066D01*
X104566981Y-56341876D02*
X104566981Y-56913305D01*
X104566981Y-56627591D02*
X103566981Y-56627591D01*
X103709838Y-56722829D01*
X103805076Y-56818067D01*
X103852695Y-56913305D01*
X103566981Y-55722829D02*
X103566981Y-55627590D01*
X103614600Y-55532352D01*
X103662219Y-55484733D01*
X103757457Y-55437114D01*
X103947933Y-55389495D01*
X104186029Y-55389495D01*
X104376505Y-55437114D01*
X104471743Y-55484733D01*
X104519362Y-55532352D01*
X104566981Y-55627590D01*
X104566981Y-55722829D01*
X104519362Y-55818067D01*
X104471743Y-55865686D01*
X104376505Y-55913305D01*
X104186029Y-55960924D01*
X103947933Y-55960924D01*
X103757457Y-55913305D01*
X103662219Y-55865686D01*
X103614600Y-55818067D01*
X103566981Y-55722829D01*
X104566981Y-54960924D02*
X103566981Y-54960924D01*
X104566981Y-54389495D02*
X103995552Y-54818067D01*
X103566981Y-54389495D02*
X104138410Y-54960924D01*
X90765334Y-76398381D02*
X90432000Y-75922190D01*
X90193905Y-76398381D02*
X90193905Y-75398381D01*
X90574858Y-75398381D01*
X90670096Y-75446000D01*
X90717715Y-75493619D01*
X90765334Y-75588857D01*
X90765334Y-75731714D01*
X90717715Y-75826952D01*
X90670096Y-75874571D01*
X90574858Y-75922190D01*
X90193905Y-75922190D01*
X91670096Y-75398381D02*
X91193905Y-75398381D01*
X91146286Y-75874571D01*
X91193905Y-75826952D01*
X91289143Y-75779333D01*
X91527239Y-75779333D01*
X91622477Y-75826952D01*
X91670096Y-75874571D01*
X91717715Y-75969810D01*
X91717715Y-76207905D01*
X91670096Y-76303143D01*
X91622477Y-76350762D01*
X91527239Y-76398381D01*
X91289143Y-76398381D01*
X91193905Y-76350762D01*
X91146286Y-76303143D01*
X92964096Y-75731714D02*
X92964096Y-76398381D01*
X92726000Y-75350762D02*
X92487905Y-76065048D01*
X93106953Y-76065048D01*
X93392667Y-75398381D02*
X94059334Y-75398381D01*
X93630762Y-76398381D01*
X94630762Y-75398381D02*
X94726001Y-75398381D01*
X94821239Y-75446000D01*
X94868858Y-75493619D01*
X94916477Y-75588857D01*
X94964096Y-75779333D01*
X94964096Y-76017429D01*
X94916477Y-76207905D01*
X94868858Y-76303143D01*
X94821239Y-76350762D01*
X94726001Y-76398381D01*
X94630762Y-76398381D01*
X94535524Y-76350762D01*
X94487905Y-76303143D01*
X94440286Y-76207905D01*
X94392667Y-76017429D01*
X94392667Y-75779333D01*
X94440286Y-75588857D01*
X94487905Y-75493619D01*
X94535524Y-75446000D01*
X94630762Y-75398381D01*
X114701581Y-69991266D02*
X114225390Y-70324600D01*
X114701581Y-70562695D02*
X113701581Y-70562695D01*
X113701581Y-70181742D01*
X113749200Y-70086504D01*
X113796819Y-70038885D01*
X113892057Y-69991266D01*
X114034914Y-69991266D01*
X114130152Y-70038885D01*
X114177771Y-70086504D01*
X114225390Y-70181742D01*
X114225390Y-70562695D01*
X113701581Y-69134123D02*
X113701581Y-69324600D01*
X113749200Y-69419838D01*
X113796819Y-69467457D01*
X113939676Y-69562695D01*
X114130152Y-69610314D01*
X114511105Y-69610314D01*
X114606343Y-69562695D01*
X114653962Y-69515076D01*
X114701581Y-69419838D01*
X114701581Y-69229361D01*
X114653962Y-69134123D01*
X114606343Y-69086504D01*
X114511105Y-69038885D01*
X114273010Y-69038885D01*
X114177771Y-69086504D01*
X114130152Y-69134123D01*
X114082533Y-69229361D01*
X114082533Y-69419838D01*
X114130152Y-69515076D01*
X114177771Y-69562695D01*
X114273010Y-69610314D01*
X114085714Y-67841714D02*
X114752381Y-67841714D01*
X113704762Y-68079810D02*
X114419048Y-68317905D01*
X114419048Y-67698857D01*
X114752381Y-67317905D02*
X113752381Y-67317905D01*
X114752381Y-66746476D02*
X114180952Y-67175048D01*
X113752381Y-66746476D02*
X114323810Y-67317905D01*
X113752381Y-66413143D02*
X113752381Y-65746476D01*
X114752381Y-66175048D01*
X118536981Y-70016666D02*
X118060790Y-70350000D01*
X118536981Y-70588095D02*
X117536981Y-70588095D01*
X117536981Y-70207142D01*
X117584600Y-70111904D01*
X117632219Y-70064285D01*
X117727457Y-70016666D01*
X117870314Y-70016666D01*
X117965552Y-70064285D01*
X118013171Y-70111904D01*
X118060790Y-70207142D01*
X118060790Y-70588095D01*
X117536981Y-69683333D02*
X117536981Y-69016666D01*
X118536981Y-69445238D01*
X117971914Y-68019514D02*
X118638581Y-68019514D01*
X117590962Y-68257610D02*
X118305248Y-68495705D01*
X118305248Y-67876657D01*
X118638581Y-67495705D02*
X117638581Y-67495705D01*
X118638581Y-66924276D02*
X118067152Y-67352848D01*
X117638581Y-66924276D02*
X118210010Y-67495705D01*
X117638581Y-66590943D02*
X117638581Y-65924276D01*
X118638581Y-66352848D01*
X119883181Y-90184266D02*
X119406990Y-90517600D01*
X119883181Y-90755695D02*
X118883181Y-90755695D01*
X118883181Y-90374742D01*
X118930800Y-90279504D01*
X118978419Y-90231885D01*
X119073657Y-90184266D01*
X119216514Y-90184266D01*
X119311752Y-90231885D01*
X119359371Y-90279504D01*
X119406990Y-90374742D01*
X119406990Y-90755695D01*
X119311752Y-89612838D02*
X119264133Y-89708076D01*
X119216514Y-89755695D01*
X119121276Y-89803314D01*
X119073657Y-89803314D01*
X118978419Y-89755695D01*
X118930800Y-89708076D01*
X118883181Y-89612838D01*
X118883181Y-89422361D01*
X118930800Y-89327123D01*
X118978419Y-89279504D01*
X119073657Y-89231885D01*
X119121276Y-89231885D01*
X119216514Y-89279504D01*
X119264133Y-89327123D01*
X119311752Y-89422361D01*
X119311752Y-89612838D01*
X119359371Y-89708076D01*
X119406990Y-89755695D01*
X119502229Y-89803314D01*
X119692705Y-89803314D01*
X119787943Y-89755695D01*
X119835562Y-89708076D01*
X119883181Y-89612838D01*
X119883181Y-89422361D01*
X119835562Y-89327123D01*
X119787943Y-89279504D01*
X119692705Y-89231885D01*
X119502229Y-89231885D01*
X119406990Y-89279504D01*
X119359371Y-89327123D01*
X119311752Y-89422361D01*
X119883181Y-87609276D02*
X119883181Y-88180705D01*
X119883181Y-87894991D02*
X118883181Y-87894991D01*
X119026038Y-87990229D01*
X119121276Y-88085467D01*
X119168895Y-88180705D01*
X118883181Y-86990229D02*
X118883181Y-86894990D01*
X118930800Y-86799752D01*
X118978419Y-86752133D01*
X119073657Y-86704514D01*
X119264133Y-86656895D01*
X119502229Y-86656895D01*
X119692705Y-86704514D01*
X119787943Y-86752133D01*
X119835562Y-86799752D01*
X119883181Y-86894990D01*
X119883181Y-86990229D01*
X119835562Y-87085467D01*
X119787943Y-87133086D01*
X119692705Y-87180705D01*
X119502229Y-87228324D01*
X119264133Y-87228324D01*
X119073657Y-87180705D01*
X118978419Y-87133086D01*
X118930800Y-87085467D01*
X118883181Y-86990229D01*
X119883181Y-86228324D02*
X118883181Y-86228324D01*
X119883181Y-85656895D02*
X119311752Y-86085467D01*
X118883181Y-85656895D02*
X119454610Y-86228324D01*
X108621581Y-69748305D02*
X109431105Y-69748305D01*
X109526343Y-69700686D01*
X109573962Y-69653067D01*
X109621581Y-69557829D01*
X109621581Y-69367352D01*
X109573962Y-69272114D01*
X109526343Y-69224495D01*
X109431105Y-69176876D01*
X108621581Y-69176876D01*
X109621581Y-68176876D02*
X109621581Y-68748305D01*
X109621581Y-68462591D02*
X108621581Y-68462591D01*
X108764438Y-68557829D01*
X108859676Y-68653067D01*
X108907295Y-68748305D01*
X98012667Y-69464181D02*
X98012667Y-68464181D01*
X98393620Y-68464181D01*
X98488858Y-68511800D01*
X98536477Y-68559419D01*
X98584096Y-68654657D01*
X98584096Y-68797514D01*
X98536477Y-68892752D01*
X98488858Y-68940371D01*
X98393620Y-68987990D01*
X98012667Y-68987990D01*
X99012667Y-69464181D02*
X99012667Y-68464181D01*
X100060286Y-69368943D02*
X100012667Y-69416562D01*
X99869810Y-69464181D01*
X99774572Y-69464181D01*
X99631714Y-69416562D01*
X99536476Y-69321324D01*
X99488857Y-69226086D01*
X99441238Y-69035610D01*
X99441238Y-68892752D01*
X99488857Y-68702276D01*
X99536476Y-68607038D01*
X99631714Y-68511800D01*
X99774572Y-68464181D01*
X99869810Y-68464181D01*
X100012667Y-68511800D01*
X100060286Y-68559419D01*
X101012667Y-69464181D02*
X100441238Y-69464181D01*
X100726952Y-69464181D02*
X100726952Y-68464181D01*
X100631714Y-68607038D01*
X100536476Y-68702276D01*
X100441238Y-68749895D01*
X101869810Y-68464181D02*
X101679333Y-68464181D01*
X101584095Y-68511800D01*
X101536476Y-68559419D01*
X101441238Y-68702276D01*
X101393619Y-68892752D01*
X101393619Y-69273705D01*
X101441238Y-69368943D01*
X101488857Y-69416562D01*
X101584095Y-69464181D01*
X101774572Y-69464181D01*
X101869810Y-69416562D01*
X101917429Y-69368943D01*
X101965048Y-69273705D01*
X101965048Y-69035610D01*
X101917429Y-68940371D01*
X101869810Y-68892752D01*
X101774572Y-68845133D01*
X101584095Y-68845133D01*
X101488857Y-68892752D01*
X101441238Y-68940371D01*
X101393619Y-69035610D01*
X102726953Y-68940371D02*
X102393619Y-68940371D01*
X102393619Y-69464181D02*
X102393619Y-68464181D01*
X102869810Y-68464181D01*
X103393619Y-68892752D02*
X103298381Y-68845133D01*
X103250762Y-68797514D01*
X103203143Y-68702276D01*
X103203143Y-68654657D01*
X103250762Y-68559419D01*
X103298381Y-68511800D01*
X103393619Y-68464181D01*
X103584096Y-68464181D01*
X103679334Y-68511800D01*
X103726953Y-68559419D01*
X103774572Y-68654657D01*
X103774572Y-68702276D01*
X103726953Y-68797514D01*
X103679334Y-68845133D01*
X103584096Y-68892752D01*
X103393619Y-68892752D01*
X103298381Y-68940371D01*
X103250762Y-68987990D01*
X103203143Y-69083229D01*
X103203143Y-69273705D01*
X103250762Y-69368943D01*
X103298381Y-69416562D01*
X103393619Y-69464181D01*
X103584096Y-69464181D01*
X103679334Y-69416562D01*
X103726953Y-69368943D01*
X103774572Y-69273705D01*
X103774572Y-69083229D01*
X103726953Y-68987990D01*
X103679334Y-68940371D01*
X103584096Y-68892752D01*
X104631715Y-68797514D02*
X104631715Y-69464181D01*
X104393619Y-68416562D02*
X104155524Y-69130848D01*
X104774572Y-69130848D01*
X103439981Y-85801105D02*
X104249505Y-85801105D01*
X104344743Y-85753486D01*
X104392362Y-85705867D01*
X104439981Y-85610629D01*
X104439981Y-85420152D01*
X104392362Y-85324914D01*
X104344743Y-85277295D01*
X104249505Y-85229676D01*
X103439981Y-85229676D01*
X103535219Y-84801105D02*
X103487600Y-84753486D01*
X103439981Y-84658248D01*
X103439981Y-84420152D01*
X103487600Y-84324914D01*
X103535219Y-84277295D01*
X103630457Y-84229676D01*
X103725695Y-84229676D01*
X103868552Y-84277295D01*
X104439981Y-84848724D01*
X104439981Y-84229676D01*
X103094209Y-79612790D02*
X103094209Y-80088981D01*
X102760876Y-79088981D02*
X103094209Y-79612790D01*
X103427543Y-79088981D01*
X104284686Y-80088981D02*
X103713257Y-80088981D01*
X103998971Y-80088981D02*
X103998971Y-79088981D01*
X103903733Y-79231838D01*
X103808495Y-79327076D01*
X103713257Y-79374695D01*
X91362305Y-78963781D02*
X91362305Y-77963781D01*
X91600400Y-77963781D01*
X91743258Y-78011400D01*
X91838496Y-78106638D01*
X91886115Y-78201876D01*
X91933734Y-78392352D01*
X91933734Y-78535210D01*
X91886115Y-78725686D01*
X91838496Y-78820924D01*
X91743258Y-78916162D01*
X91600400Y-78963781D01*
X91362305Y-78963781D01*
X92886115Y-78963781D02*
X92314686Y-78963781D01*
X92600400Y-78963781D02*
X92600400Y-77963781D01*
X92505162Y-78106638D01*
X92409924Y-78201876D01*
X92314686Y-78249495D01*
X103764734Y-42214943D02*
X103717115Y-42262562D01*
X103574258Y-42310181D01*
X103479020Y-42310181D01*
X103336162Y-42262562D01*
X103240924Y-42167324D01*
X103193305Y-42072086D01*
X103145686Y-41881610D01*
X103145686Y-41738752D01*
X103193305Y-41548276D01*
X103240924Y-41453038D01*
X103336162Y-41357800D01*
X103479020Y-41310181D01*
X103574258Y-41310181D01*
X103717115Y-41357800D01*
X103764734Y-41405419D01*
X104717115Y-42310181D02*
X104145686Y-42310181D01*
X104431400Y-42310181D02*
X104431400Y-41310181D01*
X104336162Y-41453038D01*
X104240924Y-41548276D01*
X104145686Y-41595895D01*
M02*
